<svg width="174" height="50" viewBox="0 0 174 50" fill="none" xmlns="http://www.w3.org/2000/svg">
<path d="M75.3836 35.035C74.8333 34.6847 74.2331 33.984 74.083 33.3333C73.9329 34.034 73.3827 34.7848 72.7324 35.2352L72.2322 34.6847C73.0826 34.0841 73.6828 33.2332 73.6828 31.6817V30.7307H74.4832V31.6316C74.4832 33.0831 75.0834 33.984 75.8838 34.4344L75.3836 35.035ZM76.284 36.5866V32.983H75.2335V32.3323H76.284V30.4805H77.0343V36.5866H76.284ZM77.7346 30.3804H78.485V36.7868H77.7346V30.3804Z" fill="white"/>
<path d="M83.0372 34.1341C82.3369 33.8338 81.6866 33.2332 81.3864 32.5826C81.1363 33.2833 80.486 33.984 79.6857 34.3343L79.2355 33.7838C80.1859 33.3333 80.9863 32.4324 80.9863 31.2813V30.5806H81.7866V31.2312C81.7866 32.3323 82.587 33.1832 83.4874 33.5335L83.0372 34.1341ZM82.9871 37.6877C81.8867 37.6877 81.0863 37.037 81.0863 36.0861C81.0863 35.1852 81.8867 34.4845 82.9871 34.4845C84.0876 34.4845 84.888 35.1852 84.888 36.0861C84.938 37.037 84.1377 37.6877 82.9871 37.6877ZM82.9871 35.1351C82.3369 35.1351 81.8867 35.5355 81.8867 36.0861C81.8867 36.6366 82.3369 37.037 82.9871 37.037C83.6374 37.037 84.1377 36.6366 84.1377 36.0861C84.1377 35.5355 83.6875 35.1351 82.9871 35.1351ZM84.988 32.7327V34.3343H84.2377V30.3804H84.988V32.032H86.1386V32.6827H84.988V32.7327Z" fill="white"/>
<path d="M88.1897 30.9309C89.04 30.9309 89.7403 31.5315 89.8404 32.4324H90.4907V30.4805H91.241V36.5866H90.4907V33.0831H89.8904C89.7904 34.0841 89.0901 34.6847 88.1897 34.6847C87.2392 34.6847 86.4889 33.9339 86.4889 32.7828C86.4889 31.6817 87.2392 30.9309 88.1897 30.9309ZM88.1897 33.984C88.7399 33.984 89.1401 33.5836 89.1401 32.7828C89.1401 32.032 88.6899 31.5816 88.1897 31.5816C87.6394 31.5816 87.2392 32.032 87.2392 32.7828C87.2392 33.5836 87.6394 33.984 88.1897 33.984ZM91.8413 30.3804H92.5916V36.7868H91.8413V30.3804Z" fill="white"/>
<path d="M97.2438 35.0851C96.5935 34.6847 95.8932 33.9339 95.6931 33.2332C95.443 33.984 94.8427 34.7347 94.0423 35.2352L93.5421 34.6847C94.5426 34.0841 95.2429 33.033 95.2429 31.5816V30.6807H96.0432V31.5816C96.0432 32.983 96.7936 33.984 97.694 34.5345L97.2438 35.0851ZM98.8445 36.7868V32.9329H97.3438V32.2322H98.8445V30.3804H99.5948V36.7868H98.8445Z" fill="white"/>
<path d="M106.497 35.0851C105.847 34.6847 105.147 33.9339 104.947 33.2332C104.697 33.984 104.096 34.7347 103.296 35.2352L102.796 34.6847C103.796 34.0841 104.496 33.033 104.496 31.5816V30.6807H105.297V31.5816C105.297 32.983 106.047 33.984 106.948 34.5345L106.497 35.0851ZM108.048 36.7868V32.9329H106.547V32.2322H108.048V30.3804H108.798V36.7868H108.048Z" fill="white"/>
<path d="M110.249 34.8846V30.7305H111V32.1819H112.85V30.7305H113.651V34.8846H110.249ZM112.85 32.8326H111V34.234H112.85V32.8326ZM115.001 30.4302H115.752V36.8366H115.001V30.4302Z" fill="white"/>
<path d="M116.853 35.9865V35.3358H123.306V35.9865H116.853ZM120.504 30.7312V31.1316C120.504 32.3829 121.555 33.2337 122.855 33.5841L122.505 34.2347C121.355 33.8844 120.504 33.1837 120.104 32.3829C119.754 33.1837 118.854 33.8844 117.703 34.2347L117.353 33.5841C118.603 33.2337 119.704 32.3328 119.704 31.0816V30.6812H120.504V30.7312Z" fill="white"/>
<path d="M128.157 31.4815V31.5816C128.157 33.2833 128.757 34.034 129.558 34.4845L129.107 35.0851C128.557 34.7347 127.957 34.0841 127.757 33.4334C127.557 34.1341 127.057 34.7848 126.406 35.1852L125.906 34.6346C126.756 34.034 127.307 33.2833 127.307 31.5315V31.3814H126.056V30.7307H129.257V31.3814H128.157V31.4815ZM130.058 36.5866V33.033H129.007V32.3824H130.058V30.4805H130.808V36.5866H130.058ZM131.458 30.3804H132.209V36.7868H131.458V30.3804Z" fill="white"/>
<path d="M135.26 30.5806C136.36 30.5806 137.111 31.2813 137.111 32.2322C137.111 33.1832 136.31 33.8839 135.26 33.8839C134.209 33.8839 133.409 33.1832 133.409 32.2322C133.409 31.2813 134.209 30.5806 135.26 30.5806ZM135.26 33.2833C135.91 33.2833 136.36 32.8328 136.36 32.2823C136.36 31.7317 135.91 31.2813 135.26 31.2813C134.61 31.2813 134.209 31.7317 134.209 32.2823C134.159 32.8328 134.61 33.2833 135.26 33.2833ZM135.01 37.6877V35.7357H138.461V35.0851H135.01V34.4344H139.212V36.3864H135.76V37.037H139.312V37.6877H135.01ZM138.411 34.034V30.3804H139.212V34.034H138.411Z" fill="white"/>
<path d="M145.965 34.1341C145.265 33.8338 144.614 33.2332 144.314 32.5826C144.064 33.2833 143.414 33.984 142.614 34.3343L142.163 33.7838C143.114 33.3333 143.914 32.4324 143.914 31.2813V30.5806H144.714V31.2312C144.714 32.3323 145.515 33.1832 146.415 33.5335L145.965 34.1341ZM145.965 37.6877C144.865 37.6877 144.064 37.037 144.064 36.0861C144.064 35.1852 144.865 34.4845 145.965 34.4845C147.066 34.4845 147.866 35.1852 147.866 36.0861C147.866 37.037 147.066 37.6877 145.965 37.6877ZM145.965 35.1351C145.315 35.1351 144.865 35.5355 144.865 36.0861C144.865 36.6366 145.315 37.037 145.965 37.037C146.615 37.037 147.116 36.6366 147.116 36.0861C147.116 35.5355 146.615 35.1351 145.965 35.1351ZM147.916 32.7327V34.3343H147.166V30.3804H147.916V32.032H149.066V32.6827H147.916V32.7327Z" fill="white"/>
<path d="M149.417 36.0858V35.4352H152.268V33.9337H153.018V35.4352H155.87V36.0858H149.417ZM153.068 31.4312C153.068 32.5323 154.069 33.233 155.269 33.5833L154.919 34.1839C153.819 33.9337 152.968 33.3331 152.618 32.5823C152.268 33.3331 151.418 33.9837 150.317 34.234L149.967 33.6334C151.168 33.283 152.218 32.5823 152.218 31.4812H150.267V30.8306H154.969V31.4812H153.068V31.4312Z" fill="white"/>
<path d="M49.3218 25.4259C49.0217 25.2758 48.9216 25.1757 48.9216 24.7753C48.9216 23.6742 49.0217 22.523 49.0217 22.1726C49.0217 21.8723 49.1217 21.6721 49.2718 21.6721C49.4719 21.6721 49.4719 21.8723 49.4719 22.0225C49.4719 22.2727 49.5719 22.6731 49.672 23.0235C50.1222 24.475 51.2727 25.0255 52.4732 25.0255C54.274 25.0255 55.1244 23.8243 55.1244 22.7732C55.1244 21.8223 54.8243 20.8713 53.1735 19.6201L52.2731 18.9194C50.1222 17.2177 49.3718 15.8163 49.3718 14.2147C49.3718 12.0625 51.1726 10.4609 53.9239 10.4609C55.2244 10.4609 56.0248 10.6611 56.575 10.8113C56.7751 10.8613 56.8752 10.9114 56.8752 11.0615C56.8752 11.3118 56.7751 11.9124 56.7751 13.4139C56.7751 13.8643 56.7251 14.0145 56.575 14.0145C56.425 14.0145 56.3749 13.9144 56.3749 13.6641C56.3749 13.4639 56.2749 12.8633 55.8747 12.3628C55.5746 11.9624 55.0243 11.4119 53.7238 11.4119C52.2731 11.4119 51.3727 12.2627 51.3727 13.4639C51.3727 14.3648 51.8229 15.0655 53.4737 16.3168L54.0239 16.7172C56.425 18.519 57.2754 19.8703 57.2754 21.7722C57.2754 22.9234 56.8252 24.2748 55.4245 25.2257C54.4241 25.8764 53.3236 26.0265 52.2731 26.0265C51.0726 25.9264 50.1722 25.7763 49.3218 25.4259Z" fill="white"/>
<path d="M61.9279 16.4669C61.9279 13.4639 61.9279 12.9134 61.8779 12.2627C61.8279 11.6121 61.6778 11.2617 61.0275 11.1116C60.8775 11.0615 60.5273 11.0615 60.2772 11.0615C60.0771 11.0615 59.927 11.0115 59.927 10.8613C59.927 10.7112 60.0771 10.6611 60.3772 10.6611C61.4277 10.6611 62.6783 10.7112 63.1785 10.7112C63.6287 10.7112 64.8792 10.6611 65.6796 10.6611C65.9797 10.6611 66.0798 10.7112 66.0798 10.8613C66.0798 11.0115 65.9797 11.0615 65.7296 11.0615C65.5295 11.0615 65.3795 11.0615 65.1794 11.1116C64.6291 11.2117 64.4791 11.562 64.429 12.2627C64.379 12.9134 64.379 13.4639 64.379 16.4669V20.1206C64.379 20.9714 64.429 21.9224 64.429 22.9234C64.429 24.0745 64.329 25.3258 63.9788 26.4269C63.5787 27.6281 62.5282 28.9795 60.6274 30.1807C60.3772 30.3308 60.0771 30.481 59.6269 30.6812C59.4768 30.7813 59.3268 30.7813 59.2267 30.7813C59.1267 30.7813 59.0767 30.7312 59.0767 30.6311C59.0767 30.531 59.1767 30.4309 59.5269 30.2808C59.777 30.1306 60.0771 29.9304 60.4773 29.53C61.978 28.0285 61.978 26.0265 61.978 22.1726V16.4669H61.9279Z" fill="white"/>
<path d="M71.9821 16.517C71.9821 15.4659 71.9821 14.6151 71.9821 13.9144C71.9821 13.4639 71.9821 13.2137 71.682 13.2137C71.2818 13.2137 69.8312 13.9644 69.381 14.1646C69.2809 14.2147 69.1809 14.2647 69.0809 14.2647C69.0308 14.2647 68.9308 14.1646 68.9308 14.0645C68.9308 13.9644 69.0308 13.8643 69.1309 13.7642C69.2309 13.7142 72.9826 11.2117 73.6829 10.7112C73.883 10.6111 74.0331 10.4609 74.1831 10.4609C74.3832 10.4609 74.4332 10.6611 74.4332 10.8613C74.4332 11.0115 74.3332 12.9634 74.3332 16.0165V19.6701C74.3332 21.572 74.3332 23.2237 74.4332 24.1246C74.4833 24.7753 74.5833 25.0756 75.2336 25.1757C75.5337 25.2257 76.3841 25.2758 76.5342 25.2758C76.6342 25.2758 76.7343 25.3258 76.7343 25.476C76.7343 25.6261 76.6342 25.6762 76.4341 25.6762C74.9335 25.6762 73.6829 25.6261 73.1327 25.6261C72.6825 25.6261 71.0317 25.6762 69.7311 25.6762C69.531 25.6762 69.381 25.6261 69.381 25.476C69.381 25.3258 69.481 25.2758 69.5311 25.2758C69.7311 25.2758 70.7316 25.2257 71.1318 25.1256C71.7821 24.9755 71.8821 24.7252 71.9321 24.0746C72.0322 23.2237 72.0322 21.522 72.0322 19.6201L71.9821 16.517Z" fill="white"/>
<path d="M86.8389 25.4259C86.5388 25.2758 86.4387 25.1757 86.4387 24.7753C86.4387 23.6742 86.5388 22.523 86.5388 22.1726C86.5388 21.8723 86.6388 21.6721 86.7889 21.6721C86.989 21.6721 86.989 21.8723 86.989 22.0225C86.989 22.2727 87.089 22.6731 87.1891 23.0235C87.6393 24.475 88.7898 25.0255 89.9903 25.0255C91.7911 25.0255 92.6415 23.8243 92.6415 22.7732C92.6415 21.8223 92.3414 20.8713 90.6906 19.6201L89.7902 18.9194C87.6393 17.2177 86.8889 15.8163 86.8889 14.2147C86.8889 12.0625 88.6897 10.4609 91.4409 10.4609C92.7415 10.4609 93.5419 10.6611 94.0921 10.8113C94.2922 10.8613 94.3923 10.9114 94.3923 11.0615C94.3923 11.3118 94.2922 11.9124 94.2922 13.4139C94.2922 13.8643 94.2422 14.0145 94.0921 14.0145C93.9421 14.0145 93.892 13.9144 93.892 13.6641C93.892 13.4639 93.792 12.8633 93.3918 12.3628C93.0917 11.9624 92.5414 11.4119 91.2409 11.4119C89.7902 11.4119 88.8898 12.2627 88.8898 13.4639C88.8898 14.3648 89.34 15.0655 90.9907 16.3168L91.541 16.7172C93.9421 18.519 94.7924 19.8703 94.7924 21.7722C94.7924 22.9234 94.3422 24.2748 92.9416 25.2257C91.9412 25.8764 90.8407 26.0265 89.7902 26.0265C88.5897 25.9264 87.6893 25.7763 86.8389 25.4259Z" fill="white"/>
<path d="M99.4443 16.4667C99.4443 13.4637 99.4442 12.9131 99.3942 12.2625C99.3442 11.6118 99.1941 11.2615 98.5438 11.1113C98.3938 11.0613 98.0436 11.0613 97.7935 11.0613C97.5934 11.0613 97.4434 11.0112 97.4434 10.8611C97.4434 10.7109 97.5934 10.6609 97.8936 10.6609C98.4438 10.6609 98.994 10.6609 99.4943 10.6609C99.9945 10.6609 100.445 10.7109 100.745 10.7109C101.395 10.7109 105.297 10.7109 105.697 10.7109C106.097 10.6609 106.397 10.6108 106.547 10.6108C106.647 10.6108 106.748 10.5107 106.848 10.5107C106.948 10.5107 106.948 10.6108 106.948 10.7109C106.948 10.8611 106.848 11.1113 106.798 12.0122C106.798 12.2124 106.748 13.0633 106.697 13.3135C106.697 13.4136 106.647 13.5137 106.497 13.5137C106.347 13.5137 106.297 13.4136 106.297 13.2134C106.297 13.0633 106.297 12.763 106.197 12.5127C106.047 12.1624 105.847 11.9121 104.897 11.812C104.547 11.762 102.496 11.7119 102.095 11.7119C101.995 11.7119 101.945 11.762 101.945 11.9121V16.9171C101.945 17.0673 101.945 17.1173 102.095 17.1173C102.546 17.1173 104.797 17.1173 105.247 17.0673C105.697 17.0172 105.997 16.9672 106.197 16.767C106.347 16.6168 106.397 16.5167 106.497 16.5167C106.597 16.5167 106.647 16.5668 106.647 16.6669C106.647 16.767 106.547 17.1173 106.497 18.1184C106.497 18.5188 106.397 19.3196 106.397 19.4197C106.397 19.5698 106.397 19.8201 106.197 19.8201C106.047 19.8201 105.997 19.72 105.997 19.6199C105.997 19.4197 105.997 19.1694 105.897 18.9192C105.797 18.5188 105.497 18.2185 104.797 18.1684C104.396 18.1184 102.446 18.1184 101.995 18.1184C101.895 18.1184 101.895 18.2185 101.895 18.3186V19.8701C101.895 20.5208 101.895 22.3726 101.895 22.9232C101.945 24.2745 102.245 24.5748 104.246 24.5748C104.747 24.5748 105.597 24.5748 106.097 24.3246C106.597 24.0743 106.848 23.6739 106.998 22.8731C107.048 22.6729 107.098 22.5728 107.198 22.5728C107.348 22.5728 107.348 22.723 107.348 22.9232C107.348 23.3736 107.198 24.725 107.098 25.1254C106.948 25.6259 106.798 25.6259 106.047 25.6259C104.547 25.6259 103.496 25.5758 102.646 25.5758C101.795 25.5258 101.195 25.5258 100.595 25.5258C100.395 25.5258 99.9445 25.5258 99.4443 25.5258C98.9941 25.5258 98.4938 25.5758 98.0937 25.5758C97.8435 25.5758 97.6935 25.5258 97.6935 25.3756C97.6935 25.2755 97.7935 25.2255 97.9936 25.2255C98.2937 25.2255 98.5438 25.1754 98.6939 25.1254C99.0941 25.0253 99.1941 24.6249 99.2442 24.0243C99.3442 23.1734 99.3442 21.6219 99.3442 19.8201V16.4667H99.4443Z" fill="white"/>
<path d="M111.9 16.4669C111.9 13.4639 111.9 12.9134 111.85 12.2627C111.8 11.6121 111.65 11.2617 111 11.1116C110.85 11.0615 110.5 11.0615 110.25 11.0615C110.049 11.0615 109.899 11.0115 109.899 10.8613C109.899 10.7112 110.049 10.6611 110.35 10.6611C111.4 10.6611 112.651 10.7112 113.051 10.7112C113.701 10.7112 115.202 10.6611 115.852 10.6611C117.103 10.6611 118.403 10.7612 119.504 11.512C120.054 11.9124 120.854 12.9134 120.854 14.2147C120.854 15.6661 120.254 17.0175 118.253 18.6191C120.004 20.8213 121.355 22.573 122.555 23.8243C123.656 24.9754 124.456 25.1256 124.756 25.1756C124.956 25.2257 125.156 25.2257 125.306 25.2257C125.456 25.2257 125.556 25.2757 125.556 25.3758C125.556 25.526 125.406 25.576 125.156 25.576H123.255C122.155 25.576 121.655 25.4759 121.154 25.1756C120.304 24.7252 119.554 23.7742 118.453 22.2727C117.653 21.1716 116.752 19.8203 116.502 19.52C116.402 19.4199 116.302 19.3698 116.152 19.3698L114.451 19.3198C114.351 19.3198 114.301 19.3698 114.301 19.4699V19.7702C114.301 21.6221 114.301 23.1736 114.401 24.0245C114.451 24.575 114.602 25.0255 115.152 25.1256C115.452 25.1756 115.902 25.2257 116.102 25.2257C116.252 25.2257 116.352 25.2757 116.352 25.3758C116.352 25.526 116.202 25.576 115.952 25.576C114.802 25.576 113.351 25.526 113.051 25.526C112.651 25.526 111.45 25.576 110.65 25.576C110.4 25.576 110.25 25.526 110.25 25.3758C110.25 25.2757 110.35 25.2257 110.55 25.2257C110.85 25.2257 111.1 25.1756 111.25 25.1256C111.65 25.0255 111.75 24.6251 111.8 24.0245C111.9 23.1736 111.9 21.6221 111.9 19.8203V16.4669ZM114.251 18.0185C114.251 18.2187 114.301 18.3188 114.451 18.3688C114.852 18.519 115.452 18.569 115.952 18.569C116.752 18.569 117.003 18.4689 117.353 18.2187C117.953 17.7682 118.503 16.8673 118.503 15.2657C118.503 12.4629 116.652 11.6621 115.502 11.6621C115.002 11.6621 114.652 11.6621 114.451 11.7622C114.301 11.8123 114.251 11.8623 114.251 12.0625V18.0185Z" fill="white"/>
<path d="M124.506 12.6629C124.055 11.5618 123.705 11.3616 123.005 11.1614C122.705 11.0613 122.405 11.0613 122.255 11.0613C122.055 11.0613 122.005 11.0112 122.005 10.8611C122.005 10.7109 122.205 10.6609 122.505 10.6609C123.555 10.6609 124.656 10.7109 125.356 10.7109C125.856 10.7109 126.807 10.6609 127.807 10.6609C128.057 10.6609 128.257 10.7109 128.257 10.8611C128.257 11.0112 128.157 11.0613 127.957 11.0613C127.657 11.0613 127.357 11.0613 127.207 11.2114C127.057 11.3115 127.007 11.4617 127.007 11.6118C127.007 11.8621 127.207 12.4126 127.457 13.1133L130.858 22.0723H130.959C131.809 19.9201 134.36 13.5137 134.86 12.2124C134.96 11.9622 135.06 11.6619 135.06 11.4617C135.06 11.3115 134.96 11.1614 134.81 11.0613C134.56 10.9612 134.26 10.9612 134.01 10.9612C133.81 10.9612 133.66 10.9612 133.66 10.811C133.66 10.6609 133.86 10.6108 134.21 10.6108C135.21 10.6108 136.011 10.6609 136.261 10.6609C136.611 10.6609 137.511 10.6108 138.112 10.6108C138.362 10.6108 138.512 10.6609 138.512 10.811C138.512 10.9612 138.412 11.0112 138.212 11.0112C138.012 11.0112 137.611 11.0112 137.261 11.2615C137.011 11.4617 136.711 11.762 136.161 13.0633C135.411 14.9151 134.86 15.9662 133.81 18.4186C132.559 21.3215 131.609 23.4737 131.159 24.4247C130.658 25.5758 130.508 25.8761 130.258 25.8761C130.008 25.8761 129.858 25.5758 129.508 24.6749L124.506 12.6629Z" fill="white"/>
<path d="M140.663 16.4662C140.663 13.4632 140.663 12.9127 140.613 12.262C140.563 11.6114 140.362 11.261 139.962 11.1609C139.762 11.1108 139.512 11.0608 139.262 11.0608C139.062 11.0608 138.962 11.0108 138.962 10.8606C138.962 10.7605 139.112 10.7104 139.412 10.7104C140.162 10.7104 141.413 10.7605 141.963 10.7605C142.463 10.7605 143.614 10.7104 144.364 10.7104C144.614 10.7104 144.764 10.7605 144.764 10.8606C144.764 11.0108 144.664 11.0608 144.464 11.0608C144.264 11.0608 144.114 11.0608 143.864 11.1109C143.314 11.211 143.164 11.5613 143.114 12.262C143.064 12.9127 143.064 13.4632 143.064 16.4662V19.9697C143.064 21.8716 143.064 23.4732 143.164 24.3241C143.214 24.8746 143.364 25.225 143.964 25.275C144.264 25.3251 144.664 25.3751 144.965 25.3751C145.165 25.3751 145.265 25.4252 145.265 25.5253C145.265 25.6754 145.115 25.7255 144.864 25.7255C143.564 25.7255 142.313 25.6754 141.763 25.6754C141.313 25.6754 140.062 25.7255 139.262 25.7255C139.012 25.7255 138.862 25.6754 138.862 25.5253C138.862 25.4252 138.962 25.3751 139.162 25.3751C139.462 25.3751 139.712 25.3251 139.862 25.275C140.262 25.1749 140.362 24.8746 140.413 24.274C140.513 23.4232 140.513 21.8716 140.513 19.9697V16.4662H140.663Z" fill="white"/>
<path d="M149.667 23.774C147.717 22.0723 147.216 19.8701 147.216 17.9182C147.216 16.5668 147.616 14.2645 149.517 12.5127C150.918 11.2114 152.819 10.4106 155.77 10.4106C156.971 10.4106 157.721 10.5107 158.621 10.6108C159.372 10.7109 160.022 10.9111 160.572 10.9612C160.772 10.9612 160.872 11.0613 160.872 11.2114C160.872 11.3616 160.822 11.6118 160.772 12.3125C160.722 12.9632 160.772 14.0643 160.722 14.4647C160.722 14.765 160.672 14.9151 160.472 14.9151C160.322 14.9151 160.272 14.765 160.272 14.4647C160.272 13.8641 159.972 13.1634 159.522 12.6629C158.872 11.9622 157.321 11.4617 155.52 11.4617C153.819 11.4617 152.669 11.9121 151.818 12.6629C150.368 13.9642 150.018 15.8661 150.018 17.768C150.018 22.4727 153.569 24.8251 156.22 24.8251C157.971 24.8251 159.022 24.6249 159.822 23.724C160.172 23.3236 160.422 22.773 160.472 22.4227C160.522 22.1224 160.572 22.0223 160.722 22.0223C160.872 22.0223 160.922 22.1724 160.922 22.3226C160.922 22.5728 160.672 24.2745 160.472 24.9752C160.372 25.3256 160.272 25.4257 159.972 25.5258C159.172 25.8261 157.671 25.9762 156.42 25.9762C153.719 25.9262 151.468 25.3256 149.667 23.774Z" fill="white"/>
<path d="M165.174 16.4667C165.174 13.4637 165.174 12.9131 165.124 12.2625C165.074 11.6118 164.924 11.2615 164.274 11.1113C164.124 11.0613 163.774 11.0613 163.523 11.0613C163.323 11.0613 163.173 11.0112 163.173 10.8611C163.173 10.7109 163.323 10.6609 163.624 10.6609C164.174 10.6609 164.724 10.6609 165.224 10.6609C165.724 10.6609 166.175 10.7109 166.475 10.7109C167.125 10.7109 171.027 10.7109 171.427 10.7109C171.827 10.6609 172.127 10.6108 172.277 10.6108C172.377 10.6108 172.477 10.5107 172.578 10.5107C172.678 10.5107 172.678 10.6108 172.678 10.7109C172.678 10.8611 172.578 11.1113 172.527 12.0122C172.527 12.2124 172.477 13.0633 172.427 13.3135C172.427 13.4136 172.377 13.5137 172.227 13.5137C172.077 13.5137 172.027 13.4136 172.027 13.2134C172.027 13.0633 172.027 12.763 171.927 12.5127C171.777 12.1624 171.577 11.9121 170.627 11.812C170.277 11.762 168.226 11.7119 167.825 11.7119C167.725 11.7119 167.675 11.762 167.675 11.9121V16.9171C167.675 17.0673 167.675 17.1173 167.825 17.1173C168.276 17.1173 170.527 17.1173 170.977 17.0673C171.427 17.0172 171.727 16.9672 171.927 16.767C172.077 16.6168 172.127 16.5167 172.227 16.5167C172.327 16.5167 172.377 16.5668 172.377 16.6669C172.377 16.767 172.277 17.1173 172.227 18.1184C172.227 18.5188 172.127 19.3196 172.127 19.4197C172.127 19.5698 172.127 19.8201 171.927 19.8201C171.777 19.8201 171.727 19.72 171.727 19.6199C171.727 19.4197 171.727 19.1694 171.627 18.9192C171.527 18.5188 171.227 18.2185 170.527 18.1684C170.126 18.1184 168.176 18.1184 167.725 18.1184C167.625 18.1184 167.625 18.2185 167.625 18.3186V19.8701C167.625 20.5208 167.625 22.3726 167.625 22.9232C167.675 24.2745 167.975 24.5748 169.976 24.5748C170.477 24.5748 171.327 24.5748 171.827 24.3246C172.327 24.0743 172.578 23.6739 172.728 22.8731C172.778 22.6729 172.828 22.5728 172.928 22.5728C173.078 22.5728 173.078 22.723 173.078 22.9232C173.078 23.3736 172.928 24.725 172.828 25.1254C172.678 25.6259 172.527 25.6259 171.777 25.6259C170.276 25.6259 169.226 25.5758 168.376 25.5758C167.525 25.5258 166.925 25.5258 166.325 25.5258C166.125 25.5258 165.674 25.5258 165.174 25.5258C164.724 25.5258 164.224 25.5758 163.824 25.5758C163.574 25.5758 163.423 25.5258 163.423 25.3756C163.423 25.2755 163.523 25.2255 163.724 25.2255C164.024 25.2255 164.274 25.1754 164.424 25.1254C164.824 25.0253 164.924 24.6249 164.974 24.0243C165.074 23.1734 165.074 21.6219 165.074 19.8201V16.4667H165.174Z" fill="white"/>
<path d="M21.2089 39.239V32.5322C24.6604 31.0808 26.9615 28.1779 26.9615 24.7244C26.9615 20.8205 24.3103 19.1689 21.1589 18.0678V9.65937L15.3063 13.5633L15.4063 13.7635C17.7574 12.4622 18.2576 12.4622 18.2576 14.9647V17.1168C14.4559 16.0157 11.0043 15.0147 11.3545 11.311C11.6046 8.95867 13.7556 6.60632 17.5573 6.25597C20.5586 5.95567 23.3599 7.65737 25.5108 12.6624L25.7609 12.6123L26.9114 8.45817C24.6604 6.90662 21.459 5.35507 18.5077 5.60532C12.3549 6.25597 9.85383 10.4101 9.85383 13.5132C9.85383 18.268 13.7556 19.6694 17.6573 20.8706H17.7073C17.9074 20.9206 18.0575 20.9707 18.2576 21.0207C18.4076 21.0708 18.5077 21.1208 18.6077 21.1208H18.6578C19.5081 21.4211 20.3585 21.6714 21.1589 21.9717V21.9216C23.71 22.9226 25.6109 24.274 25.2607 27.277C25.0106 29.1288 23.4099 30.9807 21.1589 31.8816V23.323C20.3085 22.9226 19.308 22.6223 18.2076 22.272V32.4822C13.5555 32.6323 10.254 29.5793 8.40319 25.9757L8.15308 26.0257L7.00256 30.5302C9.95388 32.5322 12.8051 33.7835 17.3572 33.3831C17.6573 33.333 17.9574 33.333 18.2076 33.283C18.2076 33.283 19.258 36.6864 21.2589 39.9397C21.2589 39.7395 21.2089 39.4892 21.2089 39.239Z" fill="white"/>
<path d="M21.6597 0L0 12.5125V37.5375L16.4073 46.997V45.2953L1.45065 36.6867V13.3634L21.6597 1.7017L41.8186 13.3634V36.6867L32.2644 42.1922C33.4149 40.4905 33.8651 38.1381 33.765 34.7347L33.3649 16.6667C33.3148 15.2653 33.565 14.7147 34.1652 14.3143C34.1652 14.2142 34.1652 14.014 34.1652 14.014L28.4627 14.6146C28.4627 14.6146 28.4627 14.8649 28.4627 14.9149C29.7633 14.9149 30.4636 15.8158 30.5136 17.3674L30.9138 35.0851C31.0138 39.5395 30.0634 41.2913 28.3626 42.993C26.5118 44.4444 24.0107 43.8939 22.51 42.2923C21.4596 41.2913 19.8088 39.2893 18.3082 35.5856V38.2382C18.7083 40.04 19.9089 41.8919 21.2095 43.1932C21.3595 43.3934 21.5596 43.5435 21.8097 43.6937C23.1603 44.7447 25.1112 45.3453 27.1121 45.1952L21.7597 48.2983C21.4095 47.9479 21.2095 47.3974 21.2095 46.3463V44.7948C20.109 43.9439 19.0585 42.7928 18.3082 41.4414V46.3964L18.2581 46.3463V48.048L21.6597 50L43.3193 37.4875V12.5125L21.6597 0Z" fill="white"/>
</svg>
