<svg width="24" height="24" viewBox="0 0 24 24" fill="none" xmlns="http://www.w3.org/2000/svg">
<path d="M17.7091 24C16.4553 24 15.1376 23.6285 13.7988 22.8856C10.8022 21.2347 7.23192 17.6647 6.21183 16.6122C5.19174 15.5598 2.49274 12.7739 0.941352 9.74033C-0.971322 6.02579 0.388801 3.40499 1.85518 1.85727C3.0878 0.55718 4.08664 0 5.14923 0C6.57311 0 7.67821 1.135 8.46453 2.12554L8.71956 2.43508C9.8034 3.7558 10.9085 5.09716 10.6322 6.41788C10.4835 7.07825 10.0372 7.61479 9.27211 8.00688C8.93208 8.17197 8.6133 8.31642 8.33702 8.44024C7.31693 8.89424 7.31693 8.89424 7.5932 9.63715C7.99699 10.7721 8.93208 12.0516 10.356 13.4342L10.5047 13.5993C11.1635 14.2597 12.7149 15.8074 14.2451 16.4265C14.6063 16.5709 14.7976 16.5916 14.9039 16.5916C15.0314 16.5916 15.1589 16.4265 15.5202 15.7661C15.6689 15.4978 15.8177 15.2089 16.009 14.8788C16.6465 13.8469 17.4541 13.6199 18.0279 13.6199C19.2818 13.6199 20.5144 14.6724 21.7045 15.7042L22.002 15.9725C22.9371 16.7773 24.0209 17.871 23.9997 19.2124C23.9784 20.2648 23.3409 21.2554 21.8958 22.3904C20.6631 23.4635 19.218 24 17.7091 24ZM5.14923 1.6509C4.63919 1.6509 3.95913 2.08426 3.10905 2.99226C1.47265 4.70507 1.26013 6.68616 2.47149 9.01806C3.91662 11.8246 6.59436 14.5899 7.46569 15.4978C8.44328 16.509 11.8648 19.914 14.6488 21.4617C16.9653 22.7412 19.0267 22.638 20.8757 21.1522C21.8532 20.3474 22.342 19.7283 22.3633 19.2124C22.3633 18.6965 21.917 18.0774 20.9394 17.2313L20.6206 16.963C19.7493 16.2201 18.6867 15.2915 18.0704 15.2915C17.9854 15.2915 17.7941 15.2915 17.5179 15.7455C17.3478 16.0138 17.1991 16.282 17.0716 16.5297C16.6465 17.3345 16.1577 18.2425 14.9464 18.2425C14.5638 18.2425 14.1388 18.1393 13.65 17.9329C11.8011 17.19 10.1222 15.5185 9.33586 14.7137L9.1871 14.5692C8.59204 13.9914 6.78563 12.196 6.04181 10.1531C5.25549 7.98624 6.59436 7.38779 7.67821 6.91316C7.95449 6.78934 8.20951 6.66552 8.50704 6.52107C8.80456 6.37661 8.95333 6.21152 8.99583 6.06707C9.12334 5.50989 8.14575 4.31298 7.42319 3.44626L7.16817 3.13672C6.31809 2.12554 5.68053 1.6509 5.14923 1.6509Z" fill="#004827"/>
<path d="M17.7091 24C16.4553 24 15.1376 23.6285 13.7988 22.8856C10.8022 21.2347 7.23192 17.6647 6.21183 16.6122C5.19174 15.5598 2.49274 12.7739 0.941352 9.74033C-0.971322 6.02579 0.388801 3.40499 1.85518 1.85727C3.0878 0.55718 4.08664 0 5.14923 0C6.57311 0 7.67821 1.135 8.46453 2.12554L8.71956 2.43508C9.8034 3.7558 10.9085 5.09716 10.6322 6.41788C10.4835 7.07825 10.0372 7.61479 9.27211 8.00688C8.93208 8.17197 8.6133 8.31642 8.33702 8.44024C7.31693 8.89424 7.31693 8.89424 7.5932 9.63715C7.99699 10.7721 8.93208 12.0516 10.356 13.4342L10.5047 13.5993C11.1635 14.2597 12.7149 15.8074 14.2451 16.4265C14.6063 16.5709 14.7976 16.5916 14.9039 16.5916C15.0314 16.5916 15.1589 16.4265 15.5202 15.7661C15.6689 15.4978 15.8177 15.2089 16.009 14.8788C16.6465 13.8469 17.4541 13.6199 18.0279 13.6199C19.2818 13.6199 20.5144 14.6724 21.7045 15.7042L22.002 15.9725C22.9371 16.7773 24.0209 17.871 23.9997 19.2124C23.9784 20.2648 23.3409 21.2554 21.8958 22.3904C20.6631 23.4635 19.218 24 17.7091 24ZM5.14923 1.6509C4.63919 1.6509 3.95913 2.08426 3.10905 2.99226C1.47265 4.70507 1.26013 6.68616 2.47149 9.01806C3.91662 11.8246 6.59436 14.5899 7.46569 15.4978C8.44328 16.509 11.8648 19.914 14.6488 21.4617C16.9653 22.7412 19.0267 22.638 20.8757 21.1522C21.8532 20.3474 22.342 19.7283 22.3633 19.2124C22.3633 18.6965 21.917 18.0774 20.9394 17.2313L20.6206 16.963C19.7493 16.2201 18.6867 15.2915 18.0704 15.2915C17.9854 15.2915 17.7941 15.2915 17.5179 15.7455C17.3478 16.0138 17.1991 16.282 17.0716 16.5297C16.6465 17.3345 16.1577 18.2425 14.9464 18.2425C14.5638 18.2425 14.1388 18.1393 13.65 17.9329C11.8011 17.19 10.1222 15.5185 9.33586 14.7137L9.1871 14.5692C8.59204 13.9914 6.78563 12.196 6.04181 10.1531C5.25549 7.98624 6.59436 7.38779 7.67821 6.91316C7.95449 6.78934 8.20951 6.66552 8.50704 6.52107C8.80456 6.37661 8.95333 6.21152 8.99583 6.06707C9.12334 5.50989 8.14575 4.31298 7.42319 3.44626L7.16817 3.13672C6.31809 2.12554 5.68053 1.6509 5.14923 1.6509Z" fill="#555555"/>
</svg>
