<svg width="24" height="24" viewBox="0 0 24 24" fill="none" xmlns="http://www.w3.org/2000/svg">
<path d="M20.9665 10.7102H20.6363V6.04643V6.0258C20.6363 5.98452 20.6363 5.92261 20.6156 5.88134C20.6156 5.84007 20.595 5.7988 20.5744 5.73689C20.5744 5.71625 20.5537 5.71625 20.5537 5.69561C20.5331 5.65434 20.5125 5.63371 20.5125 5.59243C20.5125 5.5718 20.4918 5.5718 20.4918 5.55116C20.4712 5.50989 20.4299 5.46862 20.3886 5.42734L15.1677 0.247635C15.1264 0.206363 15.0851 0.185727 15.0645 0.144454C15.0439 0.144454 15.0439 0.123818 15.0232 0.123818C15.0026 0.103181 14.9613 0.0825451 14.92 0.0825451C14.8994 0.0825451 14.8994 0.0619089 14.8788 0.0619089C14.8375 0.0412726 14.7962 0.0206363 14.7549 0.0206363C14.693 0 14.6518 0 14.6105 0H14.5899H4.2098C3.7558 0 3.38435 0.371453 3.38435 0.825451V10.7102H3.05417C1.36199 10.7102 0 12.0722 0 13.7438V19.9966C0 21.6681 1.36199 23.0301 3.03353 23.0301H20.9665C22.638 23.0301 24 21.6681 24 19.9966V13.7438C24 12.0722 22.638 10.7102 20.9665 10.7102ZM15.4153 2.82717L16.6122 4.02408L17.8091 5.22098H15.4153V2.82717ZM5.03525 1.6509H13.7644V6.04643C13.7644 6.50043 14.1359 6.87188 14.5899 6.87188H18.9854V10.7102H5.03525V1.6509ZM22.3491 19.9966C22.3491 20.7601 21.73 21.3792 20.9665 21.3792H3.03353C2.26999 21.3792 1.6509 20.7601 1.6509 19.9966V13.7438C1.6509 12.9802 2.26999 12.3611 3.03353 12.3611H4.18917H19.8108H20.9665C21.73 12.3611 22.3491 12.9802 22.3491 13.7438V19.9966Z" fill="#515151"/>
<path d="M18.9849 17.2312H5.01417C4.56017 17.2312 4.18872 17.6027 4.18872 18.0567C4.18872 18.5107 4.56017 18.8821 5.01417 18.8821H18.9849C19.4389 18.8821 19.8104 18.5107 19.8104 18.0567C19.8104 17.6027 19.4389 17.2312 18.9849 17.2312Z" fill="#515151"/>
<path d="M16.819 14.1359C16.819 14.6931 16.365 15.1265 15.8284 15.1265C15.2713 15.1265 14.8379 14.6725 14.8379 14.1359C14.8379 13.5994 15.2919 13.1454 15.8284 13.1454C16.365 13.1454 16.819 13.5787 16.819 14.1359Z" fill="#555555"/>
<path d="M19.5634 14.1359C19.5634 14.6931 19.1094 15.1265 18.5728 15.1265C18.0156 15.1265 17.5823 14.6725 17.5823 14.1359C17.5823 13.5994 18.0363 13.1454 18.5728 13.1454C19.1094 13.1454 19.5634 13.5787 19.5634 14.1359Z" fill="#555555"/>
</svg>
