<svg width="12" height="12" viewBox="0 0 12 12" fill="none" xmlns="http://www.w3.org/2000/svg">
<g opacity="0.7">
<path d="M0.599365 4.57122H4.19937V11.4284H0.599365V4.57122Z" fill="white"/>
<path d="M7.79937 4.57122H11.3994V11.4284H7.79937V4.57122Z" fill="white"/>
<path d="M4.19937 4.57122H7.79937V7.99979H4.19937V4.57122Z" fill="white"/>
<path d="M5.69937 0.856934L0.599365 4.85693L1.79937 6.57122L11.0994 6.2855L10.7994 4.57122L5.69937 0.856934Z" fill="white"/>
<mask id="mask0_187_2591" style="mask-type:alpha" maskUnits="userSpaceOnUse" x="0" y="0" width="12" height="12">
<path d="M11.5258 12H7.57726C7.31616 12 7.10302 11.8137 7.10302 11.5838V8.5278H4.89165V11.5838C4.89165 11.8137 4.67851 12 4.41741 12H0.474245C0.213144 12 0 11.8137 0 11.5838V4.99995C0 4.88623 0.0506217 4.77976 0.143872 4.69991L5.51243 0.117096C5.69361 -0.035342 5.97602 -0.0401813 6.16252 0.109837L11.8455 4.69265C11.944 4.7725 12 4.88381 12 4.99995V11.5838C12 11.8137 11.7869 12 11.5258 12ZM8.05151 11.1676H11.0515V5.18142L5.8508 0.98817L0.94849 5.17658V11.1676H3.94849V8.11162C3.94849 7.88175 4.16163 7.69544 4.42274 7.69544H7.57993C7.84103 7.69544 8.05417 7.88175 8.05417 8.11162V11.1676H8.05151Z" fill="#222222"/>
</mask>
<g mask="url(#mask0_187_2591)">
<rect x="-0.600586" y="-0.000488281" width="12.6" height="12" fill="white"/>
</g>
</g>
</svg>
