<svg width="18" height="27" viewBox="0 0 18 27" fill="none" xmlns="http://www.w3.org/2000/svg">
<path d="M9 23.4327C8.36446 23.4327 7.74943 23.1047 7.33941 22.5511L7.31891 22.5306L1.7836 14.6172L1.7631 14.5967C0.656036 13.0796 0 11.009 0 8.99988C0 4.0386 4.03872 -0.00012207 9 -0.00012207C13.9613 -0.00012207 18 4.0386 18 8.99988C18 11.009 17.344 13.0796 16.2574 14.5762L16.2369 14.5967L10.7016 22.5101L10.6811 22.5306C10.2506 23.1047 9.63554 23.4327 9 23.4327ZM8.63098 21.5671C8.85649 21.8541 9.12301 21.8541 9.32802 21.5671L14.8223 13.7151C14.8428 13.6946 14.8428 13.6741 14.8633 13.6536C15.7654 12.4441 16.3189 10.6605 16.3189 8.99988C16.3394 4.94065 13.0387 1.63997 9 1.63997C4.94077 1.63997 1.64009 4.94065 1.64009 8.99988C1.64009 10.6605 2.19362 12.4441 3.09567 13.6536C3.11617 13.6741 3.13667 13.6946 3.13667 13.7151L8.63098 21.5671Z" fill="#555555"/>
<path d="M9.00094 15.1294C5.61825 15.1294 2.87109 12.3618 2.87109 8.99959C2.87109 5.6169 5.61825 2.86975 9.00094 2.86975C12.3836 2.86975 15.1308 5.6169 15.1308 8.99959C15.1308 12.3618 12.3631 15.1294 9.00094 15.1294ZM9.00094 4.50984C6.5203 4.50984 4.51119 6.51895 4.51119 8.99959C4.51119 11.4802 6.5203 13.4893 9.00094 13.4893C11.4816 13.4893 13.4907 11.4802 13.4907 8.99959C13.4907 6.51895 11.4611 4.50984 9.00094 4.50984Z" fill="#555555"/>
<path d="M16.1345 24.1501H1.74268V26.1798H16.1345V24.1501Z" fill="#555555"/>
</svg>
