<svg width="250" height="289" viewBox="0 0 250 289" fill="none" xmlns="http://www.w3.org/2000/svg">
<g opacity="0.1">
<path d="M122.398 226.201V187.539C142.317 179.172 155.597 162.437 155.597 142.529C155.597 120.024 140.296 110.503 122.109 104.155V55.6834L88.3333 78.1883L88.9107 79.3424C102.479 71.8408 105.366 71.8408 105.366 86.267V98.6735C83.4257 92.326 63.5066 86.5555 65.5273 65.2047C66.9708 51.6441 79.3841 38.0835 101.324 36.0638C118.645 34.3327 134.811 44.1425 147.225 72.9949L148.668 72.7063L155.308 48.7589C142.317 39.8146 123.841 30.8704 106.809 32.313C71.301 36.0638 56.8668 60.0113 56.8668 77.8998C56.8668 105.31 79.3841 113.388 101.901 120.313H102.19C103.345 120.601 104.211 120.89 105.366 121.178C106.232 121.467 106.809 121.755 107.386 121.755H107.675C112.583 123.487 117.49 124.929 122.109 126.66V126.372C136.832 132.142 147.802 139.932 145.781 157.244C144.338 167.919 135.1 178.595 122.109 183.788V134.45C117.202 132.142 111.428 130.411 105.077 128.391V187.25C78.2294 188.116 59.1763 170.516 48.495 149.742L47.0516 150.031L40.4119 175.998C57.4442 187.539 73.8992 194.752 100.169 192.444C101.901 192.155 103.634 192.155 105.077 191.867C105.077 191.867 111.139 211.486 122.687 230.24C122.687 229.086 122.398 227.644 122.398 226.201Z" fill="#AD9F35"/>
<path d="M125 0L0 72.131V216.393L94.6882 270.924V261.114L8.37183 211.488V77.0359L125 9.80981L241.339 77.0359V211.488L186.201 243.226C192.841 233.416 195.439 219.855 194.861 200.236L192.552 96.0784C192.263 87.9998 193.707 84.826 197.171 82.5178C197.171 81.9408 197.171 80.7867 197.171 80.7867L164.261 84.249C164.261 84.249 164.261 85.6916 164.261 85.9801C171.767 85.9801 175.808 91.1735 176.097 100.118L178.406 202.255C178.984 227.934 173.499 238.032 163.684 247.842C153.002 256.209 138.568 253.035 129.908 243.803C123.845 238.032 114.319 226.491 105.658 205.14V220.432C107.968 230.819 114.896 241.494 122.402 248.996C123.268 250.15 124.423 251.016 125.866 251.881C133.661 257.94 144.919 261.403 156.467 260.537L125.577 278.425C123.557 276.406 122.402 273.232 122.402 267.173V258.229C116.051 253.324 109.988 246.688 105.658 238.898V267.462L105.37 267.173V276.983L125 288.235L250 216.104V72.131L125 0Z" fill="#AD9F35"/>
</g>
</svg>
