<svg width="130" height="52" viewBox="0 0 130 52" fill="none" xmlns="http://www.w3.org/2000/svg">
<path d="M99.9967 0.459961H95.7472L87.8186 23.3767H91.9255L93.7222 18.1191H102.05L103.733 23.3767H107.84L99.9967 0.459961ZM94.709 14.9052L97.8177 5.24593L101.012 14.9052H94.709Z" fill="white"/>
<path d="M27.5046 11.6506L38.0228 0.460057H32.8435L26.7117 7.0102V0.436768H22.1599V23.4001H26.7117V16.6112L32.9861 23.3943H38.422L27.5046 11.6506Z" fill="white"/>
<path d="M90.9045 3.84857C90.4311 3.01597 89.8436 2.3464 89.045 1.83986C88.2465 1.33331 87.3338 0.989794 86.2672 0.768545C85.2005 0.547296 84.0939 0.459961 82.9075 0.459961H77.4202V3.70883H82.3656C83.9399 3.70883 85.0351 3.91261 85.8451 4.54725C86.655 5.18188 86.9631 5.97372 86.9631 7.15566V9.21095C86.9631 11.6563 85.5599 12.9955 82.3599 12.9955H71.9558V23.4058H76.5019V16.2443H82.5881C83.7745 16.2443 84.9153 16.0173 86.0105 15.796C87.1056 15.5748 88.081 15.1439 88.9309 14.6141C89.7808 14.0901 90.3569 13.3797 90.8532 12.5472C91.3551 11.7146 91.5034 10.6491 91.5034 9.40309V6.93441C91.5034 5.71172 91.3665 4.68698 90.8931 3.85439L90.9045 3.84857Z" fill="white"/>
<path d="M76.5078 0.459961H71.9617V11.5981H76.5078V0.459961Z" fill="white"/>
<path d="M105.307 0.459961H103.26H103.071H101.024L103.049 6.42271H105.091H105.359H107.406L105.307 0.459961Z" fill="white"/>
<path d="M67.233 7.67385C67.1589 7.09744 66.9764 6.56178 66.6855 6.06689C66.3946 5.57199 66.0238 5.15278 65.5732 4.80926C65.1226 4.45992 64.6149 4.18627 64.0388 3.98249C63.4684 3.7787 62.8524 3.67972 62.1964 3.67972C61.0898 3.67972 60.1487 3.90097 59.3672 4.34347C58.5915 4.78597 57.9583 5.38567 57.4678 6.13675C56.9829 6.88784 56.6236 7.76701 56.4011 8.77428C56.1787 9.77572 56.0646 10.8296 56.0646 11.93C56.0646 12.9722 56.1787 13.9795 56.4011 14.9576C56.6236 15.9358 56.9887 16.7975 57.4849 17.5486C57.9811 18.2996 58.6143 18.8993 59.3843 19.3418C60.1544 19.7843 61.0898 20.0056 62.1964 20.0056C62.9436 20.0056 63.6338 19.8658 64.2613 19.5864C64.8887 19.3069 65.4306 18.9284 65.8812 18.4568C66.3318 17.9852 66.6855 17.4321 66.9478 16.8033C67.2102 16.1745 67.3471 15.6796 67.3871 15.2371L71.1061 15.2254C70.992 16.3084 70.7239 17.3564 70.2391 18.4277C69.7485 19.499 69.1154 20.419 68.3282 21.1817C67.5411 21.9444 66.6284 22.5325 65.5846 22.9459C64.5408 23.3593 63.4114 23.5689 62.1964 23.5689C60.6392 23.5689 59.2417 23.2661 58.004 22.6722C56.7662 22.0725 55.7167 21.2457 54.8554 20.1977C53.994 19.1439 53.3324 17.9095 52.8704 16.4889C52.414 15.0682 52.1802 13.5486 52.1802 11.93C52.1802 10.3114 52.4083 8.68694 52.8704 7.23718C53.3324 5.78741 53.994 4.52979 54.8668 3.45847C55.7395 2.38716 56.789 1.54292 58.0154 0.925753C59.2417 0.308584 60.6335 0 62.1907 0C63.3144 0 64.3867 0.180493 65.4135 0.535656C66.4345 0.890819 67.3414 1.40319 68.1286 2.07276C68.9157 2.7365 69.5603 3.54581 70.0565 4.48903C70.5528 5.43225 70.8494 6.49774 70.9407 7.67385H67.2273H67.233Z" fill="white"/>
<path d="M71.1688 13.0188H67.427V14.5619H71.1688V13.0188Z" fill="white"/>
<path d="M39.0607 0.459961L28.5881 11.6563H32.4726L42.9223 0.459961H39.0607Z" fill="white"/>
<path d="M39.0554 0.459961V9.74078H43.6072V3.90097H55.6541V0.459961H39.0554Z" fill="white"/>
<path d="M39.0725 10.6606V23.3883H43.6186V14.4102H49.8074L51.0053 10.6606H39.0725Z" fill="white"/>
<path d="M0.655518 47.6909H1.42556V49.6416L2.7717 47.6909H3.66153L2.22412 49.7348L3.80983 51.9417H2.89149L1.42556 49.8396V51.9417H0.655518V47.6967V47.6909Z" fill="white"/>
<path d="M4.78538 51.802C4.55722 51.6739 4.37469 51.4934 4.2435 51.2546C4.1123 51.0159 4.04956 50.7364 4.04956 50.4103C4.04956 50.0842 4.1123 49.8047 4.2435 49.5718C4.37469 49.3331 4.55151 49.1525 4.78538 49.0244C5.01354 48.8963 5.27022 48.8323 5.55542 48.8323C5.84062 48.8323 6.0973 48.8963 6.31975 49.0186C6.54792 49.1467 6.72474 49.3272 6.85593 49.566C6.98142 49.8047 7.04987 50.0842 7.04987 50.4103C7.04987 50.7364 6.98712 51.0159 6.85593 51.2546C6.72474 51.4934 6.54792 51.6797 6.31975 51.802C6.09159 51.9301 5.83491 51.9942 5.55542 51.9942C5.27592 51.9942 5.01354 51.9301 4.78538 51.802ZM5.02495 51.1207C5.15614 51.2896 5.33296 51.3711 5.55542 51.3711C5.77787 51.3711 5.94329 51.2896 6.08019 51.1207C6.21708 50.9518 6.27983 50.7189 6.27983 50.4161C6.27983 50.1133 6.21138 49.8804 6.08019 49.7174C5.94329 49.5543 5.77217 49.4728 5.55542 49.4728C5.33867 49.4728 5.16184 49.5543 5.02495 49.7174C4.88805 49.8804 4.8196 50.1133 4.8196 50.4161C4.8196 50.7189 4.88805 50.9577 5.02495 51.1207Z" fill="white"/>
<path d="M7.6998 48.908H8.46984V49.2807C8.56681 49.1351 8.68659 49.0303 8.81778 48.9604C8.95468 48.8905 9.09728 48.8556 9.25699 48.8556C9.38248 48.8556 9.49085 48.8556 9.56501 48.8731L9.43952 49.5311C9.37677 49.5078 9.28551 49.4903 9.16002 49.4903C9.02883 49.4903 8.90904 49.5369 8.80637 49.63C8.698 49.7232 8.61814 49.8571 8.5554 50.0318C8.49836 50.2065 8.46413 50.4103 8.46413 50.6491V51.9243H7.69409V48.9138L7.6998 48.908Z" fill="white"/>
<path d="M10.6092 51.802C10.3925 51.6739 10.2157 51.4934 10.0902 51.2546C9.96469 51.0159 9.89624 50.7364 9.89624 50.4103C9.89624 50.0842 9.95328 49.8047 10.0731 49.566C10.1928 49.3272 10.3583 49.1409 10.5636 49.0186C10.769 48.8905 11.0028 48.8323 11.2595 48.8323C11.6131 48.8323 11.9269 48.9429 12.2007 49.17C12.4745 49.3913 12.6285 49.7931 12.6456 50.3579C12.6456 50.4278 12.6456 50.5384 12.6456 50.6782H10.6834C10.7062 50.8994 10.7747 51.0741 10.8944 51.1964C11.0142 51.3187 11.1625 51.3827 11.3451 51.3827C11.6531 51.3827 11.8641 51.2546 11.9782 51.0043L12.5828 51.3187C12.4687 51.54 12.3033 51.703 12.0809 51.8195C11.8584 51.9301 11.6074 51.9883 11.3336 51.9883C11.0599 51.9883 10.8317 51.9243 10.6149 51.7962L10.6092 51.802ZM11.8584 50.0959C11.8128 49.6591 11.6246 49.4437 11.288 49.4437C11.1283 49.4437 10.9971 49.5019 10.8944 49.6184C10.7918 49.7348 10.729 49.8921 10.6948 50.0959H11.8584Z" fill="white"/>
<path d="M13.5407 51.5924C13.3126 51.3245 13.1985 50.9344 13.1985 50.4103C13.1985 50.09 13.2498 49.8105 13.3582 49.5776C13.4666 49.3389 13.6149 49.1584 13.8145 49.0244C14.0085 48.8963 14.2366 48.8323 14.4933 48.8323C14.807 48.8323 15.0694 48.9371 15.269 49.1525V48.908H16.0391V51.9185H15.269V51.6273C15.0637 51.8661 14.7956 51.9883 14.4705 51.9883C14.0712 51.9883 13.7632 51.8544 13.535 51.5865L13.5407 51.5924ZM14.1339 51.1265C14.2423 51.2838 14.402 51.3653 14.6074 51.3653C14.7557 51.3653 14.8926 51.307 15.0181 51.1906C15.1436 51.0741 15.2234 50.9111 15.269 50.7015V50.1949C15.2291 49.9736 15.155 49.7989 15.0352 49.665C14.9154 49.531 14.7785 49.4612 14.6245 49.4612C14.4191 49.4612 14.2594 49.5427 14.1454 49.7057C14.0313 49.8688 13.9685 50.1017 13.9685 50.4103C13.9685 50.7189 14.0256 50.9693 14.1339 51.1265Z" fill="white"/>
<path d="M16.8035 48.9076H17.5735V49.158C17.6762 49.0474 17.7903 48.9659 17.9272 48.9135C18.0583 48.8611 18.2009 48.8378 18.3435 48.8378C18.6858 48.8378 18.971 48.9426 19.1991 49.158C19.4216 49.3735 19.5357 49.7345 19.5357 50.2353V51.924H18.7656V50.2353C18.7656 49.9616 18.72 49.7636 18.6345 49.6472C18.5489 49.5307 18.4234 49.4667 18.2523 49.4667C18.1268 49.4667 18.0127 49.5074 17.9043 49.5948C17.8017 49.6821 17.7218 49.8044 17.6648 49.9674C17.6077 50.1247 17.5792 50.311 17.5792 50.5148V51.924H16.8092V48.9076H16.8035Z" fill="white"/>
<path d="M22.0168 47.6909H24.635C24.5779 47.7259 24.5494 47.7957 24.5494 47.9064V48.3373H22.7869V49.5601H24.4639V50.1832H22.7869V51.9359H22.0168V47.6909Z" fill="white"/>
<path d="M25.2627 47.6152H26.1354C26.0784 47.6502 26.0498 47.72 26.0498 47.8307V48.3955H25.2627V47.6152ZM25.2741 48.9079H26.0441V51.9243H25.2741V48.9079Z" fill="white"/>
<path d="M26.8142 48.9076H27.5843V49.158C27.6869 49.0474 27.801 48.9659 27.9379 48.9135C28.0691 48.8611 28.2117 48.8378 28.3543 48.8378C28.7022 48.8378 28.9874 48.9426 29.2099 49.158C29.4323 49.3735 29.5464 49.7345 29.5464 50.2353V51.924H28.7764V50.2353C28.7764 49.9616 28.7365 49.7636 28.6452 49.6472C28.5596 49.5307 28.4341 49.4667 28.263 49.4667C28.1375 49.4667 28.0178 49.5074 27.9151 49.5948C27.8124 49.6821 27.7326 49.8044 27.6698 49.9674C27.6128 50.1247 27.5843 50.311 27.5843 50.5148V51.924H26.8142V48.9076Z" fill="white"/>
<path d="M30.5388 51.5924C30.3106 51.3245 30.1965 50.9344 30.1965 50.4103C30.1965 50.09 30.2536 49.8105 30.3562 49.5776C30.4646 49.3389 30.6129 49.1584 30.8126 49.0244C31.0065 48.8963 31.2347 48.8323 31.4913 48.8323C31.8051 48.8323 32.0674 48.9371 32.2671 49.1525V48.908H33.0371V51.9185H32.2671V51.6273C32.0617 51.8661 31.7937 51.9883 31.4685 51.9883C31.0749 51.9883 30.7612 51.8544 30.5331 51.5865L30.5388 51.5924ZM31.132 51.1265C31.2404 51.2838 31.4001 51.3653 31.6054 51.3653C31.7537 51.3653 31.8906 51.307 32.0161 51.1906C32.1416 51.0741 32.2215 50.9111 32.2671 50.7015V50.1949C32.2329 49.9736 32.153 49.7989 32.0332 49.665C31.9134 49.531 31.7765 49.4612 31.6225 49.4612C31.4172 49.4612 31.2575 49.5427 31.1434 49.7057C31.0236 49.8688 30.9666 50.1017 30.9666 50.4103C30.9666 50.7189 31.0179 50.9693 31.132 51.1265Z" fill="white"/>
<path d="M33.8015 48.9076H34.5716V49.158C34.6742 49.0474 34.7883 48.9659 34.9252 48.9135C35.0564 48.8611 35.199 48.8378 35.3416 48.8378C35.6895 48.8378 35.969 48.9426 36.1972 49.158C36.4197 49.3735 36.5337 49.7345 36.5337 50.2353V51.924H35.7637V50.2353C35.7637 49.9616 35.7238 49.7636 35.6382 49.6472C35.5526 49.5307 35.4272 49.4667 35.256 49.4667C35.1305 49.4667 35.0108 49.5074 34.9081 49.5948C34.8054 49.6821 34.7256 49.8044 34.6628 49.9674C34.6001 50.1305 34.5773 50.311 34.5773 50.5148V51.924H33.8072V48.9076H33.8015Z" fill="white"/>
<path d="M37.9197 51.802C37.6972 51.6739 37.5147 51.4934 37.3835 51.2546C37.2466 51.0159 37.1838 50.7364 37.1838 50.4103C37.1838 50.0842 37.2523 49.8047 37.3778 49.566C37.509 49.3272 37.6858 49.1409 37.9082 49.0186C38.1307 48.8963 38.3703 48.8323 38.6327 48.8323C38.8779 48.8323 39.0947 48.8789 39.2886 48.972C39.4825 49.0652 39.6366 49.2049 39.7449 49.3855L39.1974 49.7872C39.0776 49.5718 38.895 49.467 38.6498 49.467C38.4501 49.467 38.2847 49.5543 38.1535 49.729C38.0223 49.9037 37.9596 50.1366 37.9596 50.4161C37.9596 50.6956 38.028 50.9344 38.1592 51.1091C38.2904 51.2838 38.4672 51.3653 38.6783 51.3653C38.9578 51.3653 39.1631 51.2255 39.2886 50.946L39.9161 51.2663C39.8191 51.4992 39.6594 51.6797 39.4255 51.8078C39.1916 51.9359 38.935 52 38.6498 52C38.3874 52 38.1478 51.9359 37.9197 51.8078V51.802Z" fill="white"/>
<path d="M40.3496 47.6152H41.2223C41.1653 47.6502 41.1368 47.72 41.1368 47.8307V48.3955H40.3496V47.6152ZM40.361 48.9079H41.1311V51.9243H40.361V48.9079Z" fill="white"/>
<path d="M42.135 51.5924C41.9068 51.3245 41.7927 50.9344 41.7927 50.4103C41.7927 50.09 41.8441 49.8105 41.9524 49.5776C42.0608 49.3389 42.2091 49.1584 42.4088 49.0244C42.6027 48.8963 42.8309 48.8323 43.0875 48.8323C43.4013 48.8323 43.6636 48.9371 43.8633 49.1525V48.908H44.6333V51.9185H43.8633V51.6273C43.6579 51.8661 43.3898 51.9883 43.0647 51.9883C42.6711 51.9883 42.3574 51.8544 42.1293 51.5865L42.135 51.5924ZM42.7282 51.1265C42.8366 51.2838 42.9963 51.3653 43.2016 51.3653C43.3499 51.3653 43.4868 51.307 43.6123 51.1906C43.7378 51.0741 43.8176 50.9111 43.8633 50.7015V50.1949C43.8291 49.9736 43.7492 49.7989 43.6294 49.665C43.5096 49.531 43.3727 49.4612 43.2187 49.4612C43.0134 49.4612 42.8537 49.5427 42.7396 49.7057C42.6255 49.8688 42.5685 50.1017 42.5685 50.4103C42.5685 50.7189 42.6255 50.9693 42.7339 51.1265H42.7282Z" fill="white"/>
<path d="M45.3977 47.6152H46.1677V51.6855C46.1677 51.7437 46.1735 51.7961 46.1906 51.8311C46.2077 51.866 46.2362 51.901 46.2704 51.9243H45.3977V47.6152Z" fill="white"/>
<path d="M49.4991 51.7321C49.2196 51.5574 48.9972 51.307 48.8375 50.9809C48.6778 50.6549 48.5979 50.2647 48.5979 49.8163C48.5979 49.368 48.6778 48.9837 48.8375 48.6576C48.9972 48.3315 49.2196 48.0753 49.5048 47.9006C49.7843 47.7259 50.0981 47.6385 50.446 47.6385C50.7654 47.6385 51.0506 47.7026 51.3073 47.8249C51.5583 47.953 51.7579 48.1393 51.9062 48.3955L51.2959 48.7507C51.2217 48.5819 51.1077 48.4596 50.9594 48.3839C50.8111 48.3082 50.6399 48.2674 50.4517 48.2674C50.2464 48.2674 50.0581 48.3257 49.8984 48.4479C49.733 48.5644 49.6075 48.7449 49.5162 48.972C49.425 49.2049 49.3736 49.4844 49.3736 49.8105C49.3736 50.3113 49.4706 50.6956 49.6703 50.9577C49.8699 51.2255 50.1323 51.3536 50.4631 51.3536C50.6913 51.3536 50.8966 51.3012 51.0734 51.1964C51.2503 51.0916 51.3815 50.9285 51.4613 50.7131L52.1116 50.9984C51.9747 51.3187 51.7636 51.5691 51.467 51.7379C51.1704 51.9068 50.8339 51.9942 50.4574 51.9942C50.1038 51.9942 49.79 51.9068 49.5105 51.7321H49.4991Z" fill="white"/>
<path d="M52.5904 48.908H53.3605V49.2807C53.4574 49.1351 53.5772 49.0303 53.7084 48.9604C53.8453 48.8905 53.9879 48.8556 54.1419 48.8556C54.2674 48.8556 54.3701 48.8556 54.4499 48.8731L54.3244 49.5311C54.2617 49.5078 54.1704 49.4903 54.0449 49.4903C53.9137 49.4903 53.794 49.5369 53.6913 49.63C53.5886 49.7232 53.5031 49.8571 53.446 50.0318C53.3833 50.2065 53.3548 50.4103 53.3548 50.6491V51.9243H52.5847V48.9138L52.5904 48.908Z" fill="white"/>
<path d="M54.9404 47.6152H55.8131C55.7561 47.6502 55.7276 47.72 55.7276 47.8307V48.3955H54.9404V47.6152ZM54.9518 48.9079H55.7219V51.9243H54.9518V48.9079Z" fill="white"/>
<path d="M56.4975 48.9076H57.2675V49.0882C57.433 48.9193 57.6383 48.8378 57.8893 48.8378C58.2657 48.8378 58.5509 48.9717 58.7392 49.2337C58.9445 48.9717 59.2411 48.8378 59.629 48.8378C59.9427 48.8378 60.2051 48.9368 60.4218 49.1406C60.6329 49.3385 60.7413 49.6879 60.7413 50.1887V51.9298H59.9712V50.1887C59.9712 49.9267 59.9313 49.7403 59.8514 49.6355C59.7716 49.5307 59.6689 49.4783 59.532 49.4783C59.4294 49.4783 59.3381 49.5191 59.2525 49.6006C59.167 49.6821 59.1042 49.7927 59.0529 49.9441C59.0073 50.0955 58.9787 50.2702 58.9787 50.4682V51.9298H58.2144V50.1887C58.2144 49.9267 58.1745 49.7403 58.1003 49.6355C58.0262 49.5307 57.9235 49.4783 57.7866 49.4783C57.6326 49.4783 57.5071 49.5656 57.4044 49.7462C57.3075 49.9267 57.2561 50.1654 57.2561 50.4682V51.9298H56.4861V48.9135L56.4975 48.9076Z" fill="white"/>
<path d="M62.1048 51.802C61.8881 51.6739 61.7113 51.4934 61.5858 51.2546C61.4546 51.0159 61.3918 50.7364 61.3918 50.4103C61.3918 50.0842 61.4489 49.8047 61.5687 49.566C61.6885 49.3272 61.8539 49.1409 62.0592 49.0186C62.2646 48.8905 62.4984 48.8323 62.7551 48.8323C63.1088 48.8323 63.4225 48.9429 63.6963 49.17C63.9701 49.3913 64.1241 49.7931 64.1469 50.3579C64.1469 50.4278 64.1469 50.5384 64.1469 50.6782H62.1847C62.2075 50.8994 62.276 51.0741 62.3958 51.1964C62.5155 51.3187 62.6638 51.3827 62.8464 51.3827C63.1544 51.3827 63.3654 51.2546 63.4795 51.0043L64.0841 51.3187C63.9701 51.54 63.8046 51.703 63.5822 51.8195C63.3597 51.9301 63.1088 51.9883 62.835 51.9883C62.5612 51.9883 62.333 51.9243 62.1163 51.7962L62.1048 51.802ZM63.354 50.0959C63.3084 49.6591 63.1202 49.4437 62.7836 49.4437C62.6239 49.4437 62.4927 49.5019 62.39 49.6184C62.2874 49.7348 62.2246 49.8921 62.1961 50.0959H63.3597H63.354Z" fill="white"/>
<path d="M66.5309 47.6909H67.9683C68.4816 47.6909 68.8638 47.8074 69.1205 48.0461C69.3772 48.279 69.5026 48.6226 69.5026 49.071C69.5026 49.5193 69.3772 49.8629 69.1205 50.0958C68.8638 50.3287 68.4816 50.451 67.9683 50.451H67.2952V51.9359H66.5251V47.6909H66.5309ZM67.934 49.8163C68.1964 49.8163 68.3961 49.7523 68.533 49.6183C68.6699 49.4844 68.7383 49.3039 68.7383 49.071C68.7383 48.838 68.6699 48.6517 68.533 48.5236C68.3961 48.3897 68.1964 48.3256 67.934 48.3256H67.3009V49.8163H67.934Z" fill="white"/>
<path d="M70.1301 48.908H70.9002V49.2807C70.9971 49.1351 71.1112 49.0303 71.2481 48.9604C71.385 48.8905 71.5276 48.8556 71.6873 48.8556C71.8128 48.8556 71.9155 48.8556 71.9953 48.8731L71.8699 49.5311C71.8071 49.5078 71.7158 49.4903 71.5904 49.4903C71.4592 49.4903 71.3394 49.5369 71.2367 49.63C71.134 49.7232 71.0485 49.8571 70.9914 50.0318C70.9344 50.2065 70.9002 50.4103 70.9002 50.6491V51.9243H70.1301V48.9138V48.908Z" fill="white"/>
<path d="M73.0336 51.802C72.8168 51.6739 72.64 51.4934 72.5145 51.2546C72.3833 51.0159 72.3206 50.7364 72.3206 50.4103C72.3206 50.0842 72.3833 49.8047 72.5031 49.566C72.6229 49.3272 72.7883 49.1409 72.9936 49.0186C73.199 48.8905 73.4328 48.8323 73.6895 48.8323C74.0432 48.8323 74.3569 48.9429 74.6307 49.17C74.9045 49.3913 75.0585 49.7931 75.0756 50.3579C75.0756 50.4278 75.0756 50.5384 75.0756 50.6782H73.1134C73.1362 50.8994 73.2047 51.0741 73.3245 51.1964C73.4442 51.3187 73.5925 51.3827 73.7751 51.3827C74.0831 51.3827 74.2941 51.2546 74.4082 51.0043L75.0128 51.3187C74.8988 51.54 74.7334 51.703 74.5109 51.8195C74.2884 51.9359 74.0375 51.9883 73.7637 51.9883C73.5013 51.9883 73.2617 51.9243 73.045 51.7962L73.0336 51.802ZM74.2827 50.0959C74.2371 49.6591 74.0489 49.4437 73.7123 49.4437C73.5526 49.4437 73.4214 49.5019 73.3188 49.6184C73.2161 49.7348 73.1533 49.8921 73.1191 50.0959H74.2827Z" fill="white"/>
<path d="M75.4636 48.9077H76.2565L76.8326 50.7653L76.901 51.0739L76.9752 50.7653L77.5513 48.9077H78.3327L77.2547 51.924H76.536L75.4693 48.9077H75.4636Z" fill="white"/>
<path d="M79.4276 51.8018C79.2108 51.6737 79.034 51.4931 78.9085 51.2544C78.7773 51.0157 78.7146 50.7362 78.7146 50.4101C78.7146 50.084 78.7773 49.8045 78.8914 49.5657C79.0112 49.327 79.1766 49.1406 79.382 49.0184C79.5873 48.8903 79.8212 48.832 80.0779 48.832C80.4315 48.832 80.7452 48.9427 81.019 49.1698C81.2928 49.391 81.4468 49.7928 81.4696 50.3577C81.4696 50.4275 81.4696 50.5382 81.4639 50.6779H79.5018C79.5246 50.8992 79.593 51.0739 79.7128 51.1962C79.8326 51.3184 79.9809 51.3825 80.1634 51.3825C80.4714 51.3825 80.6825 51.2544 80.7966 51.004L81.4012 51.3184C81.2871 51.5397 81.1217 51.7028 80.8992 51.8192C80.6768 51.9357 80.4258 51.9881 80.152 51.9881C79.8896 51.9881 79.6501 51.924 79.4333 51.7959L79.4276 51.8018ZM80.6768 50.0956C80.6311 49.6589 80.4429 49.4434 80.1064 49.4434C79.9467 49.4434 79.8155 49.5017 79.7128 49.6181C79.6101 49.7346 79.5474 49.8918 79.5189 50.0956H80.6825H80.6768Z" fill="white"/>
<path d="M82.1257 48.9076H82.8958V49.158C82.9984 49.0474 83.1125 48.9659 83.2494 48.9135C83.3806 48.8611 83.5232 48.8378 83.6658 48.8378C84.0138 48.8378 84.299 48.9426 84.5214 49.158C84.7439 49.3735 84.858 49.7345 84.858 50.2353V51.924H84.0879V50.2353C84.0879 49.9616 84.0423 49.7636 83.9567 49.6472C83.8712 49.5307 83.7457 49.4667 83.5746 49.4667C83.4491 49.4667 83.335 49.5074 83.2266 49.5948C83.1239 49.6821 83.0441 49.8044 82.9813 49.9674C82.9243 50.1247 82.8958 50.311 82.8958 50.5148V51.924H82.1257V48.9076Z" fill="white"/>
<path d="M85.8674 50.9577V49.5252H85.3655V48.9022H85.8674V48.0753H86.6375V48.9022H87.4075V49.5252H86.6375V50.9635C86.6375 51.1207 86.6717 51.2256 86.7401 51.2896C86.8086 51.3537 86.9056 51.3828 87.0367 51.3828C87.0938 51.3828 87.1622 51.3711 87.2307 51.3537C87.3048 51.3362 87.3619 51.3129 87.4132 51.2838L87.533 51.9068C87.4703 51.9301 87.379 51.9534 87.2706 51.9709C87.1565 51.9884 87.0596 51.9942 86.9797 51.9942C86.2439 51.9942 85.8731 51.6506 85.8731 50.9577H85.8674Z" fill="white"/>
<path d="M88.0237 47.6152H88.8964C88.8394 47.6502 88.8108 47.72 88.8108 47.8307V48.3955H88.0237V47.6152ZM88.0351 48.9079H88.8051V51.9243H88.0351V48.9079Z" fill="white"/>
<path d="M90.2029 51.802C89.9747 51.6739 89.7922 51.4934 89.661 51.2546C89.5298 51.0159 89.467 50.7364 89.467 50.4103C89.467 50.0842 89.5298 49.8047 89.661 49.5718C89.7922 49.3331 89.969 49.1525 90.2029 49.0244C90.431 48.8963 90.6877 48.8323 90.9729 48.8323C91.2581 48.8323 91.5148 48.8963 91.7372 49.0186C91.9654 49.1467 92.1422 49.3272 92.2734 49.566C92.4046 49.8047 92.4673 50.0842 92.4673 50.4103C92.4673 50.7364 92.4046 51.0159 92.2734 51.2546C92.1422 51.4934 91.9654 51.6797 91.7372 51.802C91.5091 51.9301 91.2524 51.9942 90.9729 51.9942C90.6934 51.9942 90.4367 51.9301 90.2029 51.802ZM90.4424 51.1207C90.5793 51.2896 90.7504 51.3711 90.9729 51.3711C91.1954 51.3711 91.3608 51.2896 91.4977 51.1207C91.6346 50.9518 91.6973 50.7189 91.6973 50.4161C91.6973 50.1133 91.6289 49.8804 91.4977 49.7174C91.3608 49.5543 91.1897 49.4728 90.9729 49.4728C90.7561 49.4728 90.5793 49.5543 90.4424 49.7174C90.3055 49.8804 90.2428 50.1133 90.2428 50.4161C90.2428 50.7189 90.3112 50.9577 90.4424 51.1207Z" fill="white"/>
<path d="M93.1233 48.9076H93.8933V49.158C93.996 49.0474 94.1101 48.9659 94.247 48.9135C94.3782 48.8611 94.5208 48.8378 94.6634 48.8378C95.0113 48.8378 95.2908 48.9426 95.519 49.158C95.7414 49.3735 95.8555 49.7345 95.8555 50.2353V51.924H95.0855V50.2353C95.0855 49.9616 95.0398 49.7636 94.96 49.6472C94.8744 49.5307 94.7489 49.4667 94.5778 49.4667C94.4523 49.4667 94.3382 49.5074 94.2299 49.5948C94.1272 49.6821 94.0473 49.8044 93.9903 49.9674C93.9333 50.1247 93.9047 50.311 93.9047 50.5148V51.924H93.1347V48.9076H93.1233Z" fill="white"/>
<path d="M99.3119 47.6909H100.167C100.167 47.6909 100.122 47.7491 100.122 47.7899C100.122 47.8248 100.128 47.8656 100.145 47.9064L100.253 48.2674L101.405 51.9359H100.635L100.339 50.8936H99.0495L98.7472 51.9359H97.9714L99.3005 47.6909H99.3119ZM100.162 50.2763L99.888 49.3155L99.6997 48.5702L99.5115 49.3155L99.232 50.2763H100.162Z" fill="white"/>
<path d="M101.628 51.5167L102.136 51.0217C102.221 51.1556 102.341 51.2488 102.484 51.307C102.626 51.3653 102.763 51.3944 102.894 51.3944C103.054 51.3944 103.18 51.3653 103.265 51.3129C103.351 51.2546 103.396 51.1731 103.396 51.0683C103.396 50.9926 103.368 50.9227 103.311 50.8645C103.254 50.8063 103.174 50.7597 103.06 50.7364L102.461 50.5908C102.221 50.5326 102.039 50.4278 101.913 50.2764C101.788 50.125 101.725 49.9561 101.725 49.7581C101.725 49.5834 101.771 49.4262 101.862 49.2865C101.953 49.1467 102.09 49.0361 102.261 48.9546C102.438 48.873 102.638 48.8323 102.871 48.8323C103.145 48.8323 103.385 48.873 103.584 48.9604C103.79 49.0477 103.938 49.1817 104.035 49.368L103.408 49.7174C103.316 49.5194 103.145 49.4204 102.9 49.4204C102.775 49.4204 102.672 49.4495 102.592 49.5019C102.518 49.5601 102.478 49.63 102.478 49.7232C102.478 49.7989 102.501 49.8629 102.552 49.9154C102.598 49.9678 102.666 50.0027 102.752 50.026L103.316 50.1657C103.567 50.2298 103.767 50.323 103.921 50.4569C104.069 50.5908 104.149 50.783 104.149 51.045C104.149 51.3536 104.035 51.5866 103.807 51.7438C103.579 51.901 103.271 51.9825 102.877 51.9825C102.352 51.9825 101.93 51.8253 101.622 51.505L101.628 51.5167Z" fill="white"/>
<path d="M104.423 51.5167L104.931 51.0217C105.016 51.1556 105.13 51.2488 105.279 51.307C105.421 51.3653 105.558 51.3944 105.689 51.3944C105.849 51.3944 105.974 51.3653 106.06 51.3129C106.146 51.2546 106.191 51.1731 106.191 51.0683C106.191 50.9926 106.163 50.9227 106.106 50.8645C106.049 50.8063 105.969 50.7597 105.86 50.7364L105.261 50.5908C105.022 50.5326 104.839 50.4278 104.708 50.2764C104.583 50.125 104.52 49.9561 104.52 49.7581C104.52 49.5834 104.566 49.4262 104.657 49.2865C104.748 49.1467 104.885 49.0361 105.056 48.9546C105.233 48.873 105.433 48.8323 105.666 48.8323C105.94 48.8323 106.18 48.873 106.379 48.9604C106.585 49.0477 106.733 49.1817 106.83 49.368L106.203 49.7174C106.111 49.5194 105.94 49.4204 105.695 49.4204C105.569 49.4204 105.467 49.4495 105.387 49.5019C105.313 49.5601 105.273 49.63 105.273 49.7232C105.273 49.7989 105.296 49.8629 105.347 49.9154C105.398 49.9678 105.461 50.0027 105.547 50.026L106.111 50.1657C106.362 50.2298 106.562 50.323 106.716 50.4569C106.87 50.5908 106.944 50.783 106.944 51.045C106.944 51.3536 106.83 51.5866 106.602 51.7438C106.374 51.901 106.066 51.9825 105.672 51.9825C105.147 51.9825 104.725 51.8253 104.417 51.505L104.423 51.5167Z" fill="white"/>
<path d="M108.091 51.802C107.862 51.6739 107.68 51.4934 107.549 51.2546C107.417 51.0159 107.355 50.7364 107.355 50.4103C107.355 50.0842 107.417 49.8047 107.549 49.5718C107.68 49.3331 107.857 49.1525 108.091 49.0244C108.319 48.8963 108.575 48.8323 108.861 48.8323C109.146 48.8323 109.402 48.8963 109.625 49.0186C109.853 49.1467 110.03 49.3272 110.161 49.566C110.292 49.8047 110.355 50.0842 110.355 50.4103C110.355 50.7364 110.292 51.0159 110.161 51.2546C110.03 51.4934 109.853 51.6797 109.625 51.802C109.397 51.9301 109.14 51.9942 108.861 51.9942C108.581 51.9942 108.319 51.9301 108.091 51.802ZM108.33 51.1207C108.467 51.2896 108.638 51.3711 108.861 51.3711C109.083 51.3711 109.248 51.2896 109.385 51.1207C109.522 50.9518 109.585 50.7189 109.585 50.4161C109.585 50.1133 109.517 49.8804 109.385 49.7174C109.248 49.5543 109.077 49.4728 108.861 49.4728C108.644 49.4728 108.467 49.5543 108.33 49.7174C108.193 49.8804 108.13 50.1133 108.13 50.4161C108.13 50.7189 108.199 50.9577 108.33 51.1207Z" fill="white"/>
<path d="M111.638 51.802C111.416 51.6739 111.233 51.4934 111.102 51.2546C110.965 51.0159 110.903 50.7364 110.903 50.4103C110.903 50.0842 110.965 49.8047 111.097 49.566C111.228 49.3272 111.405 49.1409 111.627 49.0186C111.849 48.8905 112.089 48.8323 112.351 48.8323C112.597 48.8323 112.813 48.8789 113.007 48.972C113.201 49.0652 113.355 49.2049 113.464 49.3855L112.916 49.7872C112.796 49.5718 112.614 49.467 112.369 49.467C112.169 49.467 112.003 49.5543 111.872 49.729C111.747 49.9037 111.678 50.1366 111.678 50.4161C111.678 50.6956 111.747 50.9344 111.878 51.1091C112.009 51.2838 112.186 51.3653 112.397 51.3653C112.677 51.3653 112.882 51.2255 113.007 50.946L113.635 51.2663C113.544 51.4992 113.378 51.6797 113.144 51.8078C112.91 51.9359 112.654 52 112.369 52C112.106 52 111.867 51.9359 111.638 51.8078V51.802Z" fill="white"/>
<path d="M114.068 47.6152H114.941C114.884 47.6502 114.856 47.72 114.856 47.8307V48.3955H114.068V47.6152ZM114.08 48.9079H114.85V51.9243H114.08V48.9079Z" fill="white"/>
<path d="M115.854 51.5924C115.626 51.3245 115.511 50.9344 115.511 50.4103C115.511 50.09 115.563 49.8105 115.671 49.5776C115.78 49.3389 115.928 49.1584 116.128 49.0244C116.321 48.8963 116.55 48.8323 116.806 48.8323C117.12 48.8323 117.382 48.9371 117.582 49.1525V48.908H118.352V51.9185H117.582V51.6273C117.377 51.8661 117.109 51.9883 116.783 51.9883C116.39 51.9883 116.076 51.8544 115.848 51.5865L115.854 51.5924ZM116.447 51.1265C116.555 51.2838 116.715 51.3653 116.92 51.3653C117.069 51.3653 117.206 51.307 117.331 51.1906C117.457 51.0741 117.536 50.9111 117.582 50.7015V50.1949C117.548 49.9736 117.468 49.7989 117.348 49.665C117.228 49.531 117.091 49.4612 116.937 49.4612C116.732 49.4612 116.572 49.5427 116.458 49.7057C116.344 49.8688 116.282 50.1017 116.282 50.4103C116.282 50.7189 116.339 50.9693 116.447 51.1265Z" fill="white"/>
<path d="M119.373 50.9577V49.5252H118.871V48.9022H119.373V48.0753H120.143V48.9022H120.913V49.5252H120.143V50.9635C120.143 51.1207 120.177 51.2256 120.246 51.2896C120.314 51.3537 120.411 51.3828 120.542 51.3828C120.599 51.3828 120.668 51.3711 120.736 51.3537C120.81 51.3362 120.867 51.3129 120.919 51.2838L121.038 51.9068C120.97 51.9301 120.884 51.9534 120.776 51.9709C120.668 51.9884 120.565 51.9942 120.485 51.9942C119.749 51.9942 119.379 51.6506 119.379 50.9577H119.373Z" fill="white"/>
<path d="M121.523 47.6152H122.396C122.339 47.6502 122.311 47.72 122.311 47.8307V48.3955H121.523V47.6152ZM121.535 48.9079H122.305V51.9243H121.535V48.9079Z" fill="white"/>
<path d="M123.702 51.802C123.474 51.6739 123.292 51.4934 123.16 51.2546C123.029 51.0159 122.967 50.7364 122.967 50.4103C122.967 50.0842 123.029 49.8047 123.16 49.5718C123.292 49.3331 123.474 49.1525 123.702 49.0244C123.931 48.8963 124.187 48.8323 124.472 48.8323C124.758 48.8323 125.009 48.8963 125.237 49.0186C125.465 49.1467 125.642 49.3272 125.767 49.566C125.898 49.8047 125.961 50.0842 125.961 50.4103C125.961 50.7364 125.898 51.0159 125.767 51.2546C125.636 51.4934 125.459 51.6797 125.237 51.802C125.009 51.9301 124.752 51.9942 124.472 51.9942C124.193 51.9942 123.931 51.9301 123.702 51.802ZM123.942 51.1207C124.079 51.2896 124.25 51.3711 124.472 51.3711C124.695 51.3711 124.86 51.2896 124.997 51.1207C125.134 50.9518 125.197 50.7189 125.197 50.4161C125.197 50.1133 125.128 49.8804 124.997 49.7174C124.86 49.5543 124.689 49.4728 124.472 49.4728C124.256 49.4728 124.079 49.5543 123.942 49.7174C123.811 49.8804 123.742 50.1133 123.742 50.4161C123.742 50.7189 123.811 50.9577 123.942 51.1207Z" fill="white"/>
<path d="M126.623 48.9076H127.393V49.158C127.496 49.0474 127.61 48.9659 127.746 48.9135C127.878 48.8611 128.02 48.8378 128.163 48.8378C128.511 48.8378 128.796 48.9426 129.018 49.158C129.241 49.3735 129.355 49.7345 129.355 50.2353V51.924H128.585V50.2353C128.585 49.9616 128.539 49.7636 128.459 49.6472C128.374 49.5307 128.243 49.4667 128.077 49.4667C127.952 49.4667 127.832 49.5074 127.729 49.5948C127.627 49.6821 127.547 49.8044 127.49 49.9674C127.433 50.1247 127.404 50.311 127.404 50.5148V51.924H126.634V48.9076H126.623Z" fill="white"/>
<path d="M-0.000244141 31.8308H2.82894V30.6256H5.08773C4.93372 30.7129 4.85957 30.9051 4.85957 31.1962V31.825H7.76291C7.6089 31.9123 7.53475 32.1045 7.53475 32.3956V33.4669H-0.000244141V31.825V31.8308ZM1.01507 35.3184C1.28886 34.8934 1.67673 34.5615 2.17298 34.3228C2.66923 34.0841 3.23963 33.9618 3.88418 33.9618C4.52874 33.9618 5.11055 34.0841 5.60109 34.3228C6.09734 34.5615 6.4738 34.8934 6.74189 35.3184C7.00998 35.7435 7.14117 36.2325 7.14117 36.7798C7.14117 37.3271 7.00428 37.822 6.73048 38.2529C6.45669 38.6896 6.07452 39.0273 5.58398 39.266C5.08773 39.5047 4.52303 39.627 3.87848 39.627C3.23393 39.627 2.66353 39.5105 2.16728 39.266C1.67103 39.0273 1.28316 38.6896 1.00936 38.2529C0.735573 37.8162 0.598676 37.3271 0.598676 36.7798C0.598676 36.2325 0.735573 35.7435 1.00936 35.3184H1.01507ZM1.81363 40.5003H3.83855V42.5847C3.83855 42.7419 3.9127 42.8176 4.06671 42.8176H10.7233C10.5693 42.9049 10.4894 43.0971 10.4894 43.3882V44.4595H3.34801C2.32129 44.4595 1.80793 43.953 1.80793 42.9341V40.5003H1.81363ZM2.87457 37.7172C3.15407 37.9501 3.49061 38.0666 3.87848 38.0666C4.26635 38.0666 4.62 37.9501 4.89379 37.7172C5.16759 37.4843 5.30448 37.1699 5.30448 36.7798C5.30448 36.3897 5.16759 36.0928 4.89379 35.8541C4.62 35.6212 4.28346 35.5047 3.87848 35.5047C3.4735 35.5047 3.14837 35.6212 2.87457 35.8541C2.59508 36.087 2.45818 36.3956 2.45818 36.7798C2.45818 37.1641 2.59508 37.4843 2.87457 37.7172ZM8.33331 30.9517H10.3582V34.8235H12.212C12.058 34.9109 11.9839 35.103 11.9839 35.3941V36.5236H10.3582V41.0127H8.33331V30.9458V30.9517Z" fill="white"/>
<path d="M14.5164 39.9007H18.11V37.6708H13.0676V35.9998H21.3441C21.4753 35.0216 21.5666 33.9911 21.6008 32.9023H14.4708V31.2604H23.9395C23.774 31.3594 23.6942 31.5515 23.6942 31.831V32.1221C23.6942 33.2866 23.5858 34.5791 23.3634 35.9939H25.2172C25.0632 36.0813 24.989 36.2734 24.989 36.5645V37.665H20.1292V39.8949H23.8083C23.6543 39.9823 23.5801 40.1744 23.5801 40.4655V44.6925H21.5552V41.5368H14.5107V39.8949L14.5164 39.9007Z" fill="white"/>
<path d="M26.2893 36.1744H34.4689C34.6229 35.0798 34.7141 33.9911 34.7426 32.9023H27.6126V31.2604H37.087C36.9216 31.3594 36.8417 31.5515 36.8417 31.831V32.1221C36.8417 33.4438 36.7276 34.7945 36.4995 36.1686H38.4559C38.3019 36.2559 38.2278 36.4481 38.2278 36.7392V37.8396H26.295V36.1686L26.2893 36.1744ZM27.7838 39.3127H37.0984C36.9444 39.4 36.8702 39.5922 36.8702 39.8833V43.0972C36.8702 44.1161 36.3569 44.6227 35.3302 44.6227H29.3238C28.2971 44.6227 27.7838 44.1161 27.7838 43.0972V39.3127ZM34.8396 42.7479V40.9604H29.8087V42.7479C29.8087 42.9051 29.8828 42.9808 30.0425 42.9808H34.6115C34.7655 42.9808 34.8396 42.9051 34.8396 42.7479Z" fill="white"/>
<path d="M39.5115 36.675H51.6724C51.5184 36.7624 51.4443 36.9545 51.4443 37.2456V38.2878H49.0315V39.7842H47.7823C48.25 40.0404 48.6094 40.3664 48.8546 40.774C49.0999 41.1815 49.2197 41.6124 49.2197 42.0724C49.2197 42.5731 49.0771 43.033 48.8033 43.4522C48.5238 43.8715 48.1131 44.215 47.5655 44.4712C47.0179 44.7273 46.3563 44.8613 45.5805 44.8613C44.8048 44.8613 44.1431 44.7332 43.5898 44.4712C43.0366 44.2092 42.6259 43.8715 42.3464 43.4464C42.0669 43.0214 41.93 42.5614 41.93 42.0724C41.93 41.6124 42.0555 41.1815 42.3064 40.774C42.5574 40.3664 42.9111 40.0404 43.3674 39.7842H42.1353V38.2878H39.5172V36.675H39.5115ZM42.1467 32.0521C42.4662 31.662 42.9225 31.3534 43.5214 31.1322C44.1146 30.9109 44.8162 30.8003 45.6205 30.8003C46.4247 30.8003 47.1263 30.9109 47.7195 31.1322C48.3128 31.3534 48.7691 31.6562 49.0828 32.0521C49.3965 32.4422 49.5562 32.8905 49.5562 33.4029C49.5562 33.9152 49.3965 34.3636 49.0828 34.7537C48.7634 35.1438 48.3128 35.4523 47.7195 35.6736C47.1263 35.8948 46.4247 36.0055 45.6205 36.0055C44.8162 36.0055 44.1146 35.8948 43.5214 35.6736C42.9282 35.4523 42.4719 35.1496 42.1467 34.7537C41.8273 34.3636 41.6676 33.9152 41.6676 33.4029C41.6676 32.8905 41.8273 32.4422 42.1467 32.0521ZM44.2458 34.1656C44.6166 34.3345 45.0729 34.416 45.6205 34.416C46.1681 34.416 46.6244 34.3345 46.9837 34.1656C47.3488 33.9968 47.5313 33.7464 47.5313 33.4029C47.5313 33.0594 47.3488 32.809 46.9837 32.6402C46.6187 32.4713 46.1623 32.3898 45.6205 32.3898C45.0786 32.3898 44.6166 32.4713 44.2458 32.6402C43.875 32.809 43.6925 33.0594 43.6925 33.4029C43.6925 33.7464 43.875 33.9968 44.2458 34.1656ZM44.4055 42.9399C44.7078 43.167 45.0957 43.2776 45.5748 43.2776C46.054 43.2776 46.4304 43.167 46.7327 42.9399C47.0351 42.7128 47.1834 42.4275 47.1834 42.0724C47.1834 41.7172 47.0351 41.4319 46.7327 41.2048C46.4304 40.9778 46.0483 40.8671 45.5748 40.8671C45.1014 40.8671 44.7078 40.9778 44.4055 41.2048C44.1032 41.4319 43.9549 41.7172 43.9549 42.0724C43.9549 42.4275 44.1032 42.7128 44.4055 42.9399ZM45.5748 39.2835C46.111 39.2835 46.6073 39.3533 47.0522 39.4872V38.282H44.0918V39.4872C44.5424 39.3475 45.033 39.2835 45.5691 39.2835H45.5748Z" fill="white"/>
<path d="M53.321 31.1438H55.346V32.7566H57.8044V31.1438H60.0632C59.9092 31.2311 59.835 31.4233 59.835 31.7144V33.3738H61.7915V30.9517H63.8164V38.0957H61.7915V35.0157H59.835V36.1627C59.835 37.1816 59.3217 37.6881 58.2949 37.6881H54.8611C53.8344 37.6881 53.321 37.1816 53.321 36.1627V31.1438ZM55.249 43.0971V38.9283H63.9419C63.7879 39.0156 63.7137 39.2077 63.7137 39.4989V43.0913C63.7137 44.1102 63.2004 44.6167 62.1737 44.6167H56.7834C55.7567 44.6167 55.249 44.1102 55.249 43.0913V43.0971ZM55.5798 35.9822H57.5762C57.7302 35.9822 57.8044 35.9065 57.8044 35.7493V34.416H55.346V35.7493C55.346 35.9065 55.4201 35.9822 55.5741 35.9822H55.5798ZM57.5078 42.9806H61.4607C61.6147 42.9806 61.6888 42.9049 61.6888 42.7477V40.576H57.2739V42.7477C57.2739 42.9049 57.3481 42.9806 57.5021 42.9806H57.5078Z" fill="white"/>
<path d="M68.1571 35.528C68.5335 35.2078 68.7674 34.9458 68.8701 34.742C68.9727 34.544 69.0241 34.2529 69.0241 33.8861V33.2864H66.4801V31.5863H73.6785C73.5245 31.6736 73.4504 31.8658 73.4504 32.1569V33.2864H71.049V33.8861C71.049 34.2471 71.1003 34.5324 71.2087 34.742C71.3114 34.9516 71.551 35.2136 71.916 35.528L74.112 37.4203L72.8458 38.5615L70.3588 36.4363L70.0451 36.1277L69.7143 36.4363L67.2273 38.5615L65.9667 37.4203L68.1628 35.528H68.1571ZM65.9553 40.6051H69.0583V37.9618H71.0832V40.5876C71.7164 40.5702 72.2868 40.5178 72.7944 40.4421C73.3021 40.3664 73.7869 40.2267 74.2489 40.0287L74.6539 41.659C74.0208 41.9151 73.3762 42.084 72.7203 42.1713C72.0643 42.2587 71.26 42.3052 70.3132 42.3052H65.961V40.6051H65.9553ZM75.0817 30.9517H77.1067V44.3896H75.0817V30.9517Z" fill="white"/>
<path d="M79.9871 32.611C80.4206 31.7726 81.0879 31.3476 82.0006 31.3476C83.1015 31.3476 83.8715 31.9939 84.2993 33.2864H85.6797V30.9517H87.6761V44.2732H85.6797V38.9457H84.3278C83.9171 40.2965 83.1414 40.9719 82.0006 40.9719C81.0879 40.9719 80.4206 40.5527 79.9871 39.7085C79.5536 38.87 79.3425 37.6823 79.3425 36.1568C79.3425 34.6314 79.5593 33.4494 79.9871 32.6052V32.611ZM81.4359 38.4916C81.55 39.0214 81.7382 39.2834 81.9949 39.2834C82.2516 39.2834 82.4398 39.0214 82.5539 38.4916C82.668 37.9618 82.725 37.1874 82.725 36.1568C82.725 35.1263 82.668 34.3519 82.5539 33.8221C82.4398 33.2922 82.2516 33.0302 81.9949 33.0302C81.7382 33.0302 81.55 33.2922 81.4359 33.8221C81.3218 34.3519 81.2648 35.1263 81.2648 36.1568C81.2648 37.1874 81.3218 37.9618 81.4359 38.4916ZM84.6587 36.1627C84.6587 36.5528 84.6415 36.937 84.613 37.3038H85.674V34.9283H84.5959C84.6358 35.2718 84.653 35.6794 84.653 36.1627H84.6587ZM88.5944 30.9517H90.5908V44.3896H88.5944V30.9517Z" fill="white"/>
<path d="M92.8494 31.1438H94.8743V32.6867H97.3327V31.1438H99.5915C99.4375 31.2311 99.3633 31.4233 99.3633 31.7144V36.1452C99.3633 37.1641 98.85 37.6706 97.8233 37.6706H94.3894C93.3627 37.6706 92.8494 37.1641 92.8494 36.1452V31.1438ZM95.1024 35.9705H97.0988C97.2529 35.9705 97.327 35.8948 97.327 35.7376V34.3461H94.8686V35.7376C94.8686 35.8948 94.9427 35.9705 95.0967 35.9705H95.1024ZM97.0817 44.4246C96.5284 44.1451 96.1121 43.7725 95.8269 43.295C95.5417 42.8234 95.3934 42.2936 95.3934 41.7172C95.3934 41.1408 95.536 40.6168 95.8269 40.1451C96.1121 39.6735 96.5342 39.3009 97.0817 39.0214C97.6293 38.742 98.2853 38.6022 99.0439 38.6022C99.8025 38.6022 100.453 38.742 101 39.0214C101.548 39.3009 101.964 39.6735 102.25 40.1451C102.535 40.6168 102.683 41.1349 102.683 41.7172C102.683 42.2994 102.54 42.8176 102.25 43.295C101.964 43.7725 101.542 44.1451 100.995 44.4246C100.441 44.704 99.7968 44.8438 99.0496 44.8438C98.3024 44.8438 97.6407 44.704 97.0874 44.4246H97.0817ZM97.886 42.8176C98.1997 43.1029 98.5819 43.2426 99.0439 43.2426C99.5059 43.2426 99.8881 43.1029 100.196 42.8176C100.504 42.5323 100.658 42.1655 100.658 41.7172C100.658 41.2689 100.504 40.902 100.196 40.6226C99.8881 40.3431 99.5059 40.2034 99.0439 40.2034C98.5819 40.2034 98.1997 40.3431 97.886 40.6226C97.5723 40.902 97.4183 41.263 97.4183 41.7172C97.4183 42.1713 97.5723 42.5323 97.886 42.8176ZM100.898 30.9517H102.923V33.5601H104.776C104.622 33.6474 104.548 33.8395 104.548 34.1307V35.2602H102.923V38.2995H100.898V30.9517Z" fill="white"/>
<path d="M105.929 31.7726H108.758V30.6256H111.017C110.863 30.7129 110.789 30.9051 110.789 31.1962V31.7668H113.692C113.538 31.8541 113.464 32.0463 113.464 32.3374V33.3505H105.935V31.7668L105.929 31.7726ZM106.927 35.0331C107.19 34.6489 107.566 34.3519 108.057 34.1365C108.547 33.9211 109.112 33.8163 109.751 33.8163C110.389 33.8163 110.954 33.9269 111.439 34.1365C111.924 34.3519 112.295 34.6489 112.563 35.0331C112.825 35.4174 112.956 35.8424 112.956 36.3257C112.956 36.8089 112.825 37.2514 112.563 37.6299C112.3 38.0142 111.924 38.3111 111.433 38.5324C110.943 38.7536 110.384 38.8642 109.751 38.8642C109.117 38.8642 108.547 38.7594 108.062 38.544C107.577 38.3286 107.201 38.0258 106.933 37.6415C106.665 37.2573 106.528 36.8206 106.528 36.3257C106.528 35.8308 106.659 35.4174 106.921 35.0331H106.927ZM108.142 43.1437V39.3999H110.167V40.3955H114.582V39.3999H116.841C116.687 39.4872 116.613 39.6794 116.613 39.9705V43.1378C116.613 44.1567 116.099 44.6633 115.072 44.6633H109.682C108.655 44.6633 108.142 44.1567 108.142 43.1378V43.1437ZM108.752 37.0477C108.998 37.2398 109.329 37.333 109.751 37.333C110.173 37.333 110.515 37.2398 110.755 37.0477C110.994 36.8555 111.114 36.6168 111.114 36.3199C111.114 36.0229 110.994 35.7959 110.755 35.6095C110.515 35.4174 110.178 35.3242 109.751 35.3242C109.323 35.3242 108.998 35.4174 108.752 35.6095C108.507 35.8017 108.387 36.0346 108.387 36.3199C108.387 36.6052 108.507 36.8555 108.752 37.0477ZM110.395 43.0389H114.348C114.502 43.0389 114.576 42.9573 114.576 42.806V41.9967H110.161V42.806C110.161 42.9632 110.235 43.0389 110.389 43.0389H110.395ZM113.184 36.4363H114.679V35.7784H113.184V34.1656H114.679V30.9517H116.704V38.6954H114.679V38.0491H113.184V36.4363Z" fill="white"/>
<path d="M118.848 40.7972H122.037V39.3882C121.358 39.2193 120.81 38.9107 120.405 38.4508C120 37.9908 119.795 37.4493 119.795 36.8205C119.795 36.314 119.932 35.8598 120.206 35.4581C120.48 35.0564 120.867 34.7419 121.364 34.5149C121.86 34.2878 122.43 34.1714 123.075 34.1714C123.719 34.1714 124.284 34.2878 124.78 34.5149C125.271 34.7478 125.659 35.0622 125.927 35.4581C126.201 35.8598 126.338 36.314 126.338 36.8205C126.338 37.4493 126.132 37.9908 125.722 38.4566C125.311 38.9224 124.758 39.2368 124.067 39.3998V40.7914C124.655 40.7739 125.174 40.7098 125.625 40.6109C126.081 40.5061 126.56 40.3198 127.068 40.0461L127.627 41.6472C127.045 41.9908 126.412 42.2178 125.739 42.3285C125.066 42.4391 124.227 42.4973 123.229 42.4973H118.843V40.7972H118.848ZM119.133 31.9763H122.02V30.7303H124.278C124.124 30.8177 124.05 31.0098 124.05 31.3009V31.9763H127.011C126.857 32.0637 126.783 32.2558 126.783 32.5469V33.6182H119.133V31.9763ZM122.065 37.6357C122.345 37.8453 122.681 37.9501 123.069 37.9501C123.457 37.9501 123.799 37.8453 124.073 37.6357C124.353 37.426 124.489 37.1524 124.489 36.8205C124.489 36.4886 124.353 36.2325 124.073 36.0229C123.794 35.8133 123.463 35.7085 123.069 35.7085C122.676 35.7085 122.339 35.8133 122.065 36.0287C121.786 36.2441 121.649 36.5061 121.649 36.8205C121.649 37.1524 121.786 37.426 122.065 37.6357ZM127.975 30.9516H130V44.3896H127.975V30.9516Z" fill="white"/>
</svg>
