<svg width="50" height="50" viewBox="0 0 50 50" fill="none" xmlns="http://www.w3.org/2000/svg">
<circle cx="25" cy="25" r="25" fill="#AD9F35" fill-opacity="0.8"/>
<circle cx="25" cy="25" r="25" fill="#E6E3C8"/>
<path d="M32.4258 19.6312C32.0632 19.6312 31.7503 19.3559 31.7068 18.9817C31.6591 18.5782 31.943 18.2125 32.3408 18.1641L36.1887 17.6996C36.5886 17.6513 36.9471 17.9392 36.9947 18.3428C37.0424 18.7463 36.7585 19.1121 36.3607 19.1604L32.5128 19.6249C32.4838 19.6291 32.4548 19.6291 32.4258 19.6291V19.6312Z" fill="#606060"/>
<path d="M35.567 24.3539C35.4883 24.3539 35.4095 24.3413 35.3308 24.314L31.9305 23.1286C31.5513 22.9961 31.3503 22.5779 31.4808 22.1933C31.6114 21.8086 32.0237 21.6047 32.4029 21.7372L35.8032 22.9226C36.1824 23.055 36.3834 23.4733 36.2529 23.8579C36.1493 24.1627 35.8675 24.3539 35.567 24.3539Z" fill="#606060"/>
<path d="M31.5805 16.4322C31.3401 16.4322 31.106 16.3124 30.9692 16.0917C30.7537 15.7491 30.8532 15.2951 31.1909 15.0765L34.2203 13.1155C34.5581 12.8969 35.0056 12.9978 35.2211 13.3404C35.4366 13.683 35.3372 14.137 34.9994 14.3556L31.968 16.3166C31.8478 16.3943 31.711 16.4322 31.5784 16.4322H31.5805Z" fill="#606060"/>
<path d="M32.8651 36.076H13.7252C13.3253 36.076 13 35.7461 13 35.3404C13 27.3997 14.8669 26.7587 19.0878 26.063C19.5291 25.9894 19.9829 25.9159 20.4637 25.8255V24.6485C19.3882 24.0221 18.5283 23.0574 18.0207 21.914C17.0944 21.7564 16.3796 20.7958 16.3796 19.6377C16.3796 18.5469 17.0157 17.6326 17.8632 17.3972C18.7127 14.957 20.9174 13.2944 23.3812 13.2944C25.8449 13.2944 28.0889 14.9864 28.924 17.4602C29.6803 17.7671 30.217 18.6246 30.217 19.6356C30.217 20.7139 29.5974 21.6197 28.7644 21.8678C28.2319 23.1015 27.2995 24.1209 26.1267 24.7493V25.8234C26.6074 25.9138 27.0591 25.9894 27.5025 26.0609C31.7234 26.7566 33.5882 27.3997 33.5882 35.3383C33.5882 35.744 33.2629 36.0739 32.863 36.0739L32.8651 36.076ZM14.4546 34.6048H32.1336C32.0466 28.3014 30.7806 28.0933 27.2705 27.5132C26.6696 27.4145 25.9878 27.301 25.2564 27.1496C24.9186 27.0803 24.6783 26.7776 24.6783 26.4287V24.2848C24.6783 23.9906 24.8523 23.7237 25.1196 23.6081C26.2634 23.112 27.1544 22.1452 27.5647 20.9514C27.6704 20.6424 27.9667 20.4427 28.2858 20.4595C28.2982 20.4595 28.3106 20.4595 28.3231 20.4616C28.5096 20.4469 28.7706 20.1274 28.7706 19.6356C28.7706 19.1438 28.5075 18.8201 28.3189 18.8117C28.004 18.797 27.7346 18.5763 27.6538 18.2673C27.1192 16.2391 25.3227 14.7678 23.3853 14.7678C21.4479 14.7678 19.6473 16.2412 19.1147 18.2736C19.0194 18.6331 18.6754 18.8643 18.3128 18.8117C18.1201 18.7823 17.8321 19.1144 17.8321 19.6377C17.8321 20.1611 18.1056 20.4637 18.2921 20.4637C18.3004 20.4637 18.317 20.4637 18.3418 20.4553C18.7045 20.3671 19.0754 20.573 19.1976 20.9324C19.5851 22.0716 20.4243 23.0217 21.4997 23.5366C21.7525 23.6585 21.9162 23.917 21.9162 24.2029V26.4308C21.9162 26.7797 21.6738 27.0803 21.3381 27.1517C20.6066 27.3052 19.9249 27.4166 19.324 27.5153C15.8139 28.0933 14.5458 28.3035 14.4587 34.6069L14.4546 34.6048Z" fill="#606060"/>
</svg>
