<svg width="38" height="52" viewBox="0 0 38 52" fill="none" xmlns="http://www.w3.org/2000/svg">
<g clip-path="url(#clip0_189_1398)">
<path d="M20.9148 52.0001H8.7761C3.9393 52.0001 0 48.1348 0 43.38V24.7755C0 20.0207 3.9393 16.1514 8.78016 16.1514H20.9189C25.7598 16.1514 29.695 20.0207 29.695 24.7715V43.376C29.695 48.1308 25.7557 51.9961 20.9189 51.9961L20.9148 52.0001ZM8.78016 18.9436C5.50689 18.9436 2.84279 21.5604 2.84279 24.7715V43.376C2.84279 46.5911 5.50689 49.2038 8.78016 49.2038H20.9189C24.1922 49.2038 26.8522 46.5871 26.8522 43.376V24.7715C26.8522 21.5564 24.1922 18.9436 20.9189 18.9436H8.78016Z" fill="#222222"/>
<path d="M14.4901 33.3434C6.30282 33.3434 0.938068 29.7613 0.609116 29.5339C-0.0325427 29.0912 -0.190927 28.2216 0.255798 27.5913C0.706583 26.9611 1.59191 26.8055 2.23357 27.2443C2.69248 27.5554 13.3489 34.58 27.6035 27.1565C28.2979 26.7935 29.1589 27.0568 29.5244 27.7349C29.8939 28.417 29.6259 29.2627 28.9355 29.6217C23.5789 32.41 18.6649 33.3434 14.4901 33.3434Z" fill="#222222"/>
<path d="M14.8474 33.3158C14.0636 33.3158 13.426 32.6896 13.426 31.9197V17.5475C13.426 16.7776 14.0636 16.1514 14.8474 16.1514C15.6312 16.1514 16.2688 16.7776 16.2688 17.5475V31.9197C16.2688 32.6896 15.6312 33.3158 14.8474 33.3158Z" fill="#222222"/>
<path d="M15.0749 18.541C14.9978 18.541 14.9206 18.533 14.8435 18.521C14.0678 18.3934 13.5439 17.6754 13.6739 16.9175C13.7754 16.3032 14.5876 10.9061 11.3509 9.84106C6.66435 8.30133 6.31103 3.46672 6.78212 1.1252C6.93238 0.367299 7.67963 -0.123342 8.45124 0.0242492C9.2188 0.17184 9.72238 0.905808 9.57212 1.65972C9.53557 1.84321 8.77613 6.04757 12.2525 7.1924C16.407 8.55662 17.1258 13.5269 16.4801 17.3722C16.3664 18.0543 15.7613 18.541 15.079 18.541H15.0749Z" fill="#222222"/>
<path d="M31.2787 20.268C30.4949 20.268 29.8573 19.6417 29.8573 18.8718C29.8573 16.0556 27.5222 13.762 24.655 13.762C23.8712 13.762 23.2336 13.1357 23.2336 12.3659C23.2336 11.596 23.8712 10.9697 24.655 10.9697C29.0898 10.9697 32.7001 14.5159 32.7001 18.8718C32.7001 19.6417 32.0625 20.268 31.2787 20.268Z" fill="#AD9F35"/>
<path d="M36.5786 18.9671C35.7948 18.9671 35.1572 18.3408 35.1572 17.571C35.1572 12.6007 31.0392 8.55594 25.979 8.55594C25.1952 8.55594 24.5576 7.92967 24.5576 7.15981C24.5576 6.38994 25.1952 5.76367 25.979 5.76367C32.6068 5.76367 38 11.061 38 17.571C38 18.3408 37.3624 18.9671 36.5786 18.9671Z" fill="#AD9F35"/>
</g>
<defs>
<clipPath id="clip0_189_1398">
<rect width="38" height="52" fill="white"/>
</clipPath>
</defs>
</svg>
