<svg width="48" height="48" viewBox="0 0 48 48" fill="none" xmlns="http://www.w3.org/2000/svg">
<g clip-path="url(#clip0_189_1354)">
<path d="M46.3334 42.4412C45.4144 42.4412 44.6668 41.681 44.6668 40.7465V4.21265C44.6668 3.76717 44.2953 3.38949 43.8572 3.38949H10.3001C9.86199 3.38949 9.49056 3.76717 9.49056 4.21265V39.352C9.49056 40.2865 8.74294 41.0467 7.82389 41.0467C6.90485 41.0467 6.15723 40.2865 6.15723 39.352V4.21265C6.15723 1.88843 8.01437 0 10.3001 0H43.8572C46.1429 0 48.0001 1.88843 48.0001 4.21265V40.7465C48.0001 41.681 47.2525 42.4412 46.3334 42.4412Z" fill="#222222"/>
<path d="M41.6905 47.9998C41.6905 47.9998 41.6857 47.9998 41.6809 47.9998H6.5619C4.83809 47.9998 3.33809 47.3897 2.21905 46.2422C0.0142856 43.9712 0 40.4122 0 40.0103C0.0142857 39.0806 0.752381 38.335 1.66667 38.335H35.9143C36.3762 38.335 36.819 38.5286 37.1333 38.8773C37.4476 39.2211 37.6095 39.6859 37.5762 40.1556C37.5762 40.1653 37.4667 42.2571 38.6524 43.5306C39.3238 44.2569 40.3143 44.6104 41.6809 44.6104H41.6905C42.6095 44.6104 43.3571 45.3706 43.3571 46.3051C43.3571 47.2396 42.6095 47.9998 41.6905 47.9998ZM3.54762 41.7293C3.72857 42.4895 4.05238 43.3078 4.59524 43.8695C5.08571 44.3683 5.72857 44.6152 6.55714 44.6152H35.3143C34.7476 43.6177 34.4714 42.5815 34.3429 41.7341H3.54762V41.7293Z" fill="#222222"/>
<path d="M41.1762 48.0004C38.6905 48.0004 36.7905 47.2257 35.5191 45.6908C33.5429 43.2987 34.0239 40.0981 34.081 39.7398C34.2381 38.8198 35.0953 38.2 36.0096 38.3598C36.9143 38.5196 37.5191 39.3911 37.3667 40.3111C37.3572 40.3693 37.0762 42.3206 38.081 43.5166C38.6858 44.2381 39.7239 44.6061 41.1715 44.6061C42.381 44.6061 43.2667 44.3253 43.8 43.7781C44.6858 42.8678 44.6715 41.1876 44.662 40.2869V40.0303V3.72404C44.662 2.78951 45.4096 2.0293 46.3286 2.0293C47.2477 2.0293 47.9953 2.78951 47.9953 3.72404V40.2579C48.0096 41.5556 48.0334 44.2575 46.1667 46.1701C44.981 47.3855 43.3 48.0004 41.1715 48.0004H41.1762Z" fill="#222222"/>
<path d="M36.6047 13.2284H17.6047C16.6856 13.2284 15.938 12.4681 15.938 11.5336C15.938 10.5991 16.6856 9.83887 17.6047 9.83887H36.6047C37.5237 9.83887 38.2713 10.5991 38.2713 11.5336C38.2713 12.4681 37.5237 13.2284 36.6047 13.2284Z" fill="#AD9F35"/>
<path d="M36.6047 23.1014H17.6047C16.6856 23.1014 15.938 22.3412 15.938 21.4067C15.938 20.4721 16.6856 19.7119 17.6047 19.7119H36.6047C37.5237 19.7119 38.2713 20.4721 38.2713 21.4067C38.2713 22.3412 37.5237 23.1014 36.6047 23.1014Z" fill="#AD9F35"/>
<path d="M36.6047 32.9696H17.6047C16.6856 32.9696 15.938 32.2094 15.938 31.2748C15.938 30.3403 16.6856 29.5801 17.6047 29.5801H36.6047C37.5237 29.5801 38.2713 30.3403 38.2713 31.2748C38.2713 32.2094 37.5237 32.9696 36.6047 32.9696Z" fill="#AD9F35"/>
</g>
<defs>
<clipPath id="clip0_189_1354">
<rect width="48" height="48" fill="white"/>
</clipPath>
</defs>
</svg>
