<svg width="32" height="55" viewBox="0 0 32 55" fill="none" xmlns="http://www.w3.org/2000/svg">
<g clip-path="url(#clip0_189_1457)">
<path d="M16 52.0032C15.4794 52.0032 14.9908 51.7497 14.6895 51.3287L0.287653 30.9402C-0.164402 30.2974 -0.0776435 29.4283 0.493133 28.8851C1.59359 27.8349 4.46117 24.5575 4.46117 22.0406C4.46117 19.5238 4.25112 18.5505 4.20546 18.3875C3.99085 17.9439 3.99085 17.4143 4.22829 16.9707C4.50226 16.4456 5.05021 16.1151 5.64838 16.1151H25.2192C25.4566 16.0019 25.7032 15.9521 25.9269 15.9521C26.484 15.9521 27.1963 16.2554 27.4886 17.0884C27.5708 17.2785 27.6119 17.4822 27.6119 17.6995C27.6119 18.0118 27.5205 18.3015 27.3653 18.546C27.3333 19.0711 27.2968 20.0941 27.2968 22.0406C27.2968 24.5349 30.3151 27.8077 31.4749 28.8534C32.0685 29.3921 32.1689 30.2838 31.7077 30.9357L17.3059 51.3196C17.0045 51.7452 16.516 51.9941 15.9954 51.9941L16 52.0032ZM3.66208 30.1888L16 47.6575L28.3196 30.2205C26.7808 28.6044 24.1004 25.3225 24.1004 22.0497C24.1004 20.8456 24.1141 19.9538 24.1324 19.2929H7.55706C7.61642 19.99 7.65295 20.8908 7.65295 22.0497C7.65295 25.3044 5.11414 28.5772 3.65752 30.1933L3.66208 30.1888Z" fill="#222222"/>
<path d="M16 51.2251C15.1188 51.2251 14.4019 50.5144 14.4019 49.6408V33.7836C14.4019 32.9099 15.1188 32.1992 16 32.1992C16.8813 32.1992 17.5982 32.9099 17.5982 33.7836V49.6408C17.5982 50.5144 16.8813 51.2251 16 51.2251Z" fill="#AD9F35"/>
<path d="M13.4475 32.8596C13.4475 31.4653 14.5891 30.3291 16 30.3291C17.411 30.3291 18.5525 31.4608 18.5525 32.8596C18.5525 34.2583 17.411 35.39 16 35.39C14.5891 35.39 13.4475 34.2583 13.4475 32.8596Z" fill="#AD9F35"/>
<path d="M23.1189 19.1391H8.88144C6.99103 19.1391 5.45679 17.6181 5.45679 15.744V3.39506C5.45679 1.52099 6.99103 0 8.88144 0H23.1189C25.0047 0 26.5435 1.52099 26.5435 3.39506V15.744C26.5435 17.6181 25.0047 19.1391 23.1189 19.1391ZM8.88144 3.16872C8.75816 3.16872 8.65313 3.27284 8.65313 3.39506V15.744C8.65313 15.8663 8.75816 15.9704 8.88144 15.9704H23.1189C23.2422 15.9704 23.3472 15.8663 23.3472 15.744V3.39506C23.3472 3.27284 23.2422 3.16872 23.1189 3.16872H8.88144Z" fill="#222222"/>
<path d="M3.19653 18.2383C3.19653 16.9074 4.44767 15.8301 5.99105 15.8301H26.0093C27.5527 15.8301 28.8038 16.9074 28.8038 18.2383C28.8038 19.5692 27.5527 20.6465 26.0093 20.6465H5.99105C4.44767 20.6465 3.19653 19.5692 3.19653 18.2383Z" fill="#222222"/>
<path d="M29.3469 54.9998H3.56155C2.68027 54.9998 1.96338 54.2891 1.96338 53.4154C1.96338 52.5418 2.68027 51.8311 3.56155 51.8311H29.3469C30.2282 51.8311 30.9451 52.5418 30.9451 53.4154C30.9451 54.2891 30.2282 54.9998 29.3469 54.9998Z" fill="#222222"/>
</g>
<defs>
<clipPath id="clip0_189_1457">
<rect width="32" height="55" fill="white"/>
</clipPath>
</defs>
</svg>
