<svg width="49" height="50" viewBox="0 0 49 50" fill="none" xmlns="http://www.w3.org/2000/svg">
<g clip-path="url(#clip0_189_1342)">
<path d="M41.91 29.7256H38.6449V3.93993C38.6449 3.56448 38.323 3.24465 37.9452 3.24465H29.4139V0H37.9452C40.1328 0 41.91 1.76601 41.91 3.93993V29.7256Z" fill="#222222"/>
<path d="M32.9683 48.6836H3.96478C1.77715 48.6836 0 46.9176 0 44.7437V3.93993C0 1.76601 1.77715 0 3.96478 0H12.65V3.24465H3.96478C3.58696 3.24465 3.26511 3.56448 3.26511 3.93993V44.7437C3.26511 45.1191 3.58696 45.439 3.96478 45.439H32.9683V48.6836Z" fill="#222222"/>
<path d="M37.824 50C31.6622 50 26.6479 45.0172 26.6479 38.894C26.6479 32.7709 31.6622 27.7881 37.824 27.7881C43.9857 27.7881 49 32.7709 49 38.894C49 45.0172 43.9857 50 37.824 50ZM37.824 31.0327C33.4627 31.0327 29.9131 34.5601 29.9131 38.894C29.9131 43.228 33.4627 46.7554 37.824 46.7554C42.1852 46.7554 45.7349 43.228 45.7349 38.894C45.7349 34.5601 42.1852 31.0327 37.824 31.0327Z" fill="#222222"/>
<path d="M36.6298 43.8909C36.21 43.8909 35.7949 43.7333 35.4777 43.4135L31.9141 39.8722C31.2751 39.2372 31.2751 38.2128 31.9141 37.5778C32.5531 36.9427 33.584 36.9427 34.223 37.5778L36.6345 39.9742L41.4389 35.1999C42.0779 34.5649 43.1088 34.5649 43.7478 35.1999C44.3868 35.8349 44.3868 36.8593 43.7478 37.4943L37.7866 43.4181C37.4694 43.7333 37.0496 43.8955 36.6345 43.8955L36.6298 43.8909Z" fill="#AD9F35"/>
<path d="M28.9476 9.33995H13.1164C12.2162 9.33995 11.4839 8.61222 11.4839 7.71762V1.62232C11.4839 0.727728 12.2162 0 13.1164 0H28.9522C29.8525 0 30.5848 0.727728 30.5848 1.62232V7.71762C30.5848 8.61222 29.8525 9.33995 28.9522 9.33995H28.9476ZM14.7443 6.0953H27.315V3.24465H14.7443V6.0953Z" fill="#222222"/>
<path d="M28.691 26.314H8.60594C7.70571 26.314 6.97339 25.5863 6.97339 24.6917C6.97339 23.7971 7.70571 23.0693 8.60594 23.0693H28.6957C29.5959 23.0693 30.3283 23.7971 30.3283 24.6917C30.3283 25.5863 29.5959 26.314 28.6957 26.314H28.691Z" fill="#222222"/>
<path d="M33.4628 18.1236H8.60594C7.70571 18.1236 6.97339 17.3958 6.97339 16.5012C6.97339 15.6066 7.70571 14.8789 8.60594 14.8789H33.4628C34.363 14.8789 35.0953 15.6066 35.0953 16.5012C35.0953 17.3958 34.363 18.1236 33.4628 18.1236Z" fill="#222222"/>
<path d="M22.3286 34.356H8.60118C7.70095 34.356 6.96863 33.6282 6.96863 32.7337C6.96863 31.8391 7.70095 31.1113 8.60118 31.1113H22.3286C23.2289 31.1113 23.9612 31.8391 23.9612 32.7337C23.9612 33.6282 23.2289 34.356 22.3286 34.356Z" fill="#222222"/>
</g>
<defs>
<clipPath id="clip0_189_1342">
<rect width="49" height="50" fill="white"/>
</clipPath>
</defs>
</svg>
