<svg width="52" height="52" viewBox="0 0 52 52" fill="none" xmlns="http://www.w3.org/2000/svg">
<g clip-path="url(#clip0_189_1440)">
<path d="M49.1783 27.6726H46.1684C45.2458 27.6726 44.4978 26.9246 44.4978 26.0018C44.4978 25.0791 45.2458 24.3311 46.1684 24.3311H49.1783C50.1009 24.3311 50.8489 25.0791 50.8489 26.0018C50.8489 26.9246 50.1009 27.6726 49.1783 27.6726Z" fill="#222222"/>
<path d="M26 52C11.663 52 0 40.3359 0 26.0022C0 11.6685 11.663 0 26 0C40.3369 0 52 11.6641 52 26.0022C52 40.3404 40.3369 52.0045 26 52.0045V52ZM26 3.33707C13.5039 3.34155 3.34126 13.505 3.34126 26.0022C3.34126 38.4994 13.5084 48.6629 26 48.6629C38.4916 48.6629 48.6587 38.4994 48.6587 26.0022C48.6587 13.505 38.4961 3.34155 26 3.34155V3.33707Z" fill="#222222"/>
<path d="M26 6.79068C25.0773 6.79068 24.3293 6.04264 24.3293 5.11991V1.76941C24.3293 0.846673 25.0773 0.0986328 26 0.0986328C26.9226 0.0986328 27.6706 0.846673 27.6706 1.76941V5.12439C27.6706 6.04712 26.9226 6.79516 26 6.79516V6.79068Z" fill="#222222"/>
<path d="M26 51.9055C25.0773 51.9055 24.3293 51.1575 24.3293 50.2347V46.8798C24.3293 45.957 25.0773 45.209 26 45.209C26.9226 45.209 27.6706 45.957 27.6706 46.8798V50.2347C27.6706 51.1575 26.9226 51.9055 26 51.9055Z" fill="#222222"/>
<path d="M5.12396 27.6726H1.76926C0.846609 27.6726 0.0986328 26.9246 0.0986328 26.0018C0.0986328 25.0791 0.846609 24.3311 1.76926 24.3311H5.12396C6.04661 24.3311 6.79458 25.0791 6.79458 26.0018C6.79458 26.9246 6.04661 27.6726 5.12396 27.6726Z" fill="#222222"/>
<path d="M26 27.3278C25.0773 27.3278 24.3293 26.5797 24.3293 25.657V11.1083C24.3293 10.1855 25.0773 9.4375 26 9.4375C26.9226 9.4375 27.6706 10.1855 27.6706 11.1083V25.657C27.6706 26.5797 26.9226 27.3278 26 27.3278Z" fill="#AD9F35"/>
<path d="M36.7314 37.1555C36.3373 37.1555 35.9431 37.0166 35.6251 36.7389L24.8937 27.2518C24.2039 26.6381 24.1367 25.5855 24.7504 24.8957C25.3595 24.2059 26.4165 24.1387 27.1063 24.7523L37.8377 34.2395C38.5274 34.8487 38.5946 35.9058 37.981 36.5956C37.6496 36.9674 37.1927 37.16 36.7314 37.16V37.1555Z" fill="#AD9F35"/>
</g>
<defs>
<clipPath id="clip0_189_1440">
<rect width="52" height="52" fill="white"/>
</clipPath>
</defs>
</svg>
