<svg width="43" height="47" viewBox="0 0 43 47" fill="none" xmlns="http://www.w3.org/2000/svg">
<g clip-path="url(#clip0_189_1485)">
<path d="M39.405 47H3.5909C1.60971 47 0 45.3943 0 43.4181V13.5779C0 11.6017 1.60971 9.99609 3.5909 9.99609H18.231C19.0276 9.99609 19.6757 10.6425 19.6757 11.4371C19.6757 12.2316 19.0276 12.878 18.231 12.878H3.5909C3.21117 12.878 2.88923 13.1991 2.88923 13.5779V43.4181C2.88923 43.7969 3.21117 44.118 3.5909 44.118H39.405C39.7847 44.118 40.1066 43.7969 40.1066 43.4181V13.5779C40.1066 13.1991 39.7847 12.878 39.405 12.878H24.5089C23.7123 12.878 23.0643 12.2316 23.0643 11.4371C23.0643 10.6425 23.7123 9.99609 24.5089 9.99609H39.405C41.3862 9.99609 42.9959 11.6017 42.9959 13.5779V43.4181C42.9959 45.3943 41.3862 47 39.405 47Z" fill="#222222"/>
<path d="M31.8642 29.2266H11.1319C10.3353 29.2266 9.68726 28.5803 9.68726 27.7857C9.68726 26.9911 10.3353 26.3447 11.1319 26.3447H31.8642C32.6608 26.3447 33.3088 26.9911 33.3088 27.7857C33.3088 28.5803 32.6608 29.2266 31.8642 29.2266Z" fill="#222222"/>
<path d="M31.8642 37.1192H11.1319C10.3353 37.1192 9.68726 36.4729 9.68726 35.6783C9.68726 34.8837 10.3353 34.2373 11.1319 34.2373H31.8642C32.6608 34.2373 33.3088 34.8837 33.3088 35.6783C33.3088 36.4729 32.6608 37.1192 31.8642 37.1192Z" fill="#222222"/>
<path d="M41.5554 20.2315H1.44462C0.648013 20.2315 0 19.5852 0 18.7906C0 17.996 0.648013 17.3496 1.44462 17.3496H41.5554C42.352 17.3496 43 17.996 43 18.7906C43 19.5852 42.352 20.2315 41.5554 20.2315Z" fill="#222222"/>
<path d="M22.9694 15.7682H20.0265C18.4416 15.7682 17.1497 14.4837 17.1497 12.8987V2.86957C17.1497 1.28863 18.4374 0 20.0265 0H22.9694C24.5543 0 25.8462 1.28451 25.8462 2.86957V12.8987C25.8462 14.4796 24.5585 15.7682 22.9694 15.7682ZM22.957 2.86957L20.0265 2.88192L20.0389 12.8987L22.957 12.8863V2.86957Z" fill="#AD9F35"/>
</g>
<defs>
<clipPath id="clip0_189_1485">
<rect width="43" height="47" fill="white"/>
</clipPath>
</defs>
</svg>
