<svg width="53" height="47" viewBox="0 0 53 47" fill="none" xmlns="http://www.w3.org/2000/svg">
<g clip-path="url(#clip0_189_1379)">
<path d="M28.0912 38.9963H3.38557C1.51674 38.9963 0 37.4733 0 35.6068V9.16481C0 7.29837 1.51674 5.77539 3.38557 5.77539H43.403C45.2674 5.77539 46.7886 7.29385 46.7886 9.16481V23.8478C46.7886 24.72 46.0799 25.4295 45.2087 25.4295C44.3374 25.4295 43.6287 24.72 43.6287 23.8478V9.16481C43.6287 9.0428 43.5249 8.93885 43.403 8.93885H3.38557C3.26369 8.93885 3.15987 9.0428 3.15987 9.16481V35.6023C3.15987 35.7243 3.26369 35.8283 3.38557 35.8283H28.0912C28.9624 35.8283 29.6712 36.5378 29.6712 37.41C29.6712 38.2822 28.9624 38.9917 28.0912 38.9917V38.9963Z" fill="#222222"/>
<path d="M1.58441 10.6925C1.50315 10.6925 1.4219 10.688 1.33613 10.6744C0.473937 10.5388 -0.112895 9.7299 0.0180137 8.86673L1.20071 1.33769C1.32259 0.569423 1.98165 0 2.76258 0H20.9499C21.6992 0 22.3447 0.52875 22.4982 1.26087L23.6809 6.98221C23.857 7.83635 23.3062 8.67692 22.4531 8.85317C21.5999 9.02942 20.7648 8.47808 20.5842 7.62394L19.6634 3.16798H4.1123L3.14177 9.35933C3.01989 10.1412 2.34729 10.697 1.58441 10.697V10.6925Z" fill="#222222"/>
<path d="M34.6953 40.9669C31.4181 40.9669 28.335 39.688 26.0192 37.3696C23.7035 35.0513 22.426 31.9646 22.426 28.6837C22.426 25.4027 23.7035 22.3161 26.0192 19.9977C28.335 17.6748 31.4181 16.4004 34.6953 16.4004C37.9726 16.4004 41.0557 17.6793 43.3714 19.9977C45.6917 22.3161 46.9646 25.4027 46.9646 28.6837C46.9646 31.9646 45.6872 35.0513 43.3714 37.3696C41.0557 39.6925 37.9726 40.9669 34.6953 40.9669ZM34.6953 19.3605C32.2081 19.3605 29.8698 20.3321 28.1138 22.0901C26.3578 23.8481 25.3873 26.189 25.3873 28.6791C25.3873 31.1692 26.3533 33.5102 28.1138 35.2682C29.8698 37.0307 32.2081 37.9978 34.6953 37.9978C37.1826 37.9978 39.5209 37.0307 41.2769 35.2682C43.0374 33.5102 44.0034 31.1692 44.0034 28.6791C44.0034 26.189 43.0374 23.8481 41.2769 22.0901C39.5209 20.3276 37.1826 19.3605 34.6953 19.3605Z" fill="#222222"/>
<path d="M45.2088 40.66C44.8296 40.66 44.4549 40.5154 44.166 40.2307L41.286 37.37C40.7037 36.7915 40.6992 35.8515 41.277 35.2731C41.8548 34.6901 42.7937 34.6856 43.3715 35.264L46.2515 38.1247C46.8338 38.7032 46.8383 39.6432 46.2605 40.2216C45.9716 40.5154 45.5879 40.66 45.2088 40.66Z" fill="#222222"/>
<path d="M48.1609 47C47.7546 47 47.3529 46.8464 47.0459 46.5346L42.4505 41.934C42.1526 41.6357 41.9856 41.2335 41.9856 40.8177C41.9856 40.402 42.1526 39.9952 42.4505 39.697L45.7097 36.4341C46.3282 35.8149 47.3258 35.8149 47.9442 36.4341L52.5395 41.0347C52.8375 41.3329 53.0045 41.7351 53.0045 42.1509C53.0045 42.5667 52.8375 42.9734 52.5395 43.2672L49.2804 46.53C48.9734 46.8373 48.5671 46.9955 48.1654 46.9955L48.1609 47ZM45.8 40.8177L48.1609 43.1813L49.1856 42.1554L46.8247 39.7919L45.8 40.8177Z" fill="#222222"/>
<path d="M34.6955 34.4094C33.9462 34.4094 33.3413 33.8038 33.3413 33.0536V24.3089C33.3413 23.5587 33.9462 22.9531 34.6955 22.9531C35.4449 22.9531 36.0498 23.5587 36.0498 24.3089V33.0536C36.0498 33.8038 35.4449 34.4094 34.6955 34.4094Z" fill="#AD9F35"/>
<path d="M39.0651 30.0348H30.3303C29.581 30.0348 28.9761 29.4292 28.9761 28.679C28.9761 27.9288 29.581 27.3232 30.3303 27.3232H39.0651C39.8144 27.3232 40.4193 27.9288 40.4193 28.679C40.4193 29.4292 39.8144 30.0348 39.0651 30.0348Z" fill="#AD9F35"/>
</g>
<defs>
<clipPath id="clip0_189_1379">
<rect width="53" height="47" fill="white"/>
</clipPath>
</defs>
</svg>
