<svg width="50" height="50" viewBox="0 0 50 50" fill="none" xmlns="http://www.w3.org/2000/svg">
<circle cx="25" cy="25" r="25" fill="#AD9F35" fill-opacity="0.8"/>
<circle cx="25" cy="25" r="25" fill="#E6E3C8"/>
<path d="M27.3033 36.9997H22.6941C22.2325 36.9997 21.8569 36.5987 21.8569 36.1057V31.978C21.8569 31.485 22.2325 31.084 22.6941 31.084H27.3033C27.7649 31.084 28.1405 31.485 28.1405 31.978V36.1057C28.1405 36.5987 27.7649 36.9997 27.3033 36.9997ZM23.5313 35.2117H26.4661V32.872H23.5313V35.2117Z" fill="white"/>
<path d="M27.3033 36.9997H22.6941C22.2325 36.9997 21.8569 36.5987 21.8569 36.1057V31.978C21.8569 31.485 22.2325 31.084 22.6941 31.084H27.3033C27.7649 31.084 28.1405 31.485 28.1405 31.978V36.1057C28.1405 36.5987 27.7649 36.9997 27.3033 36.9997ZM23.5313 35.2117H26.4661V32.872H23.5313V35.2117Z" fill="#606060"/>
<path d="M36.2061 32.7906H13.7939C12.8037 32.7906 12 31.9323 12 30.8748V14.9157C12 13.8582 12.8037 13 13.7939 13H36.2061C37.1963 13 38 13.8582 38 14.9157V30.8748C38 31.9323 37.1963 32.7906 36.2061 32.7906ZM13.7939 14.788C13.7293 14.788 13.6743 14.8467 13.6743 14.9157V30.8748C13.6743 30.9438 13.7293 31.0026 13.7939 31.0026H36.2061C36.2707 31.0026 36.3257 30.9438 36.3257 30.8748V14.9157C36.3257 14.8467 36.2707 14.788 36.2061 14.788H13.7939Z" fill="white"/>
<path d="M36.2061 32.7906H13.7939C12.8037 32.7906 12 31.9323 12 30.8748V14.9157C12 13.8582 12.8037 13 13.7939 13H36.2061C37.1963 13 38 13.8582 38 14.9157V30.8748C38 31.9323 37.1963 32.7906 36.2061 32.7906ZM13.7939 14.788C13.7293 14.788 13.6743 14.8467 13.6743 14.9157V30.8748C13.6743 30.9438 13.7293 31.0026 13.7939 31.0026H36.2061C36.2707 31.0026 36.3257 30.9438 36.3257 30.8748V14.9157C36.3257 14.8467 36.2707 14.788 36.2061 14.788H13.7939Z" fill="#606060"/>
<path d="M24.8016 26.4121C24.5959 26.4121 24.3949 26.3304 24.2395 26.1797L20.3431 22.4121C20.001 22.0801 19.9747 21.5156 20.2833 21.1503C20.5942 20.785 21.1228 20.7569 21.4649 21.0864L24.6772 24.1925L29.6045 17.1248C29.8796 16.7288 30.4058 16.6471 30.7765 16.9409C31.1473 17.2346 31.2238 17.7965 30.9488 18.1925L25.4713 26.0494C25.3302 26.2512 25.1173 26.3815 24.8805 26.4045C24.8542 26.407 24.8255 26.4096 24.7992 26.4096L24.8016 26.4121Z" fill="white"/>
<path d="M24.8016 26.4121C24.5959 26.4121 24.3949 26.3304 24.2395 26.1797L20.3431 22.4121C20.001 22.0801 19.9747 21.5156 20.2833 21.1503C20.5942 20.785 21.1228 20.7569 21.4649 21.0864L24.6772 24.1925L29.6045 17.1248C29.8796 16.7288 30.4058 16.6471 30.7765 16.9409C31.1473 17.2346 31.2238 17.7965 30.9488 18.1925L25.4713 26.0494C25.3302 26.2512 25.1173 26.3815 24.8805 26.4045C24.8542 26.407 24.8255 26.4096 24.7992 26.4096L24.8016 26.4121Z" fill="#606060"/>
<path d="M37.1628 29.6947H12.8372C12.3755 29.6947 12 29.2937 12 28.8007C12 28.3078 12.3755 27.9067 12.8372 27.9067H37.1628C37.6245 27.9067 38 28.3078 38 28.8007C38 29.2937 37.6245 29.6947 37.1628 29.6947Z" fill="white"/>
<path d="M37.1628 29.6947H12.8372C12.3755 29.6947 12 29.2937 12 28.8007C12 28.3078 12.3755 27.9067 12.8372 27.9067H37.1628C37.6245 27.9067 38 28.3078 38 28.8007C38 29.2937 37.6245 29.6947 37.1628 29.6947Z" fill="#606060"/>
<path d="M31.0516 36.9999H19.1543C18.6927 36.9999 18.3171 36.5989 18.3171 36.1059C18.3171 35.6129 18.6927 35.2119 19.1543 35.2119H31.0516C31.5133 35.2119 31.8888 35.6129 31.8888 36.1059C31.8888 36.5989 31.5133 36.9999 31.0516 36.9999Z" fill="white"/>
<path d="M31.0516 36.9999H19.1543C18.6927 36.9999 18.3171 36.5989 18.3171 36.1059C18.3171 35.6129 18.6927 35.2119 19.1543 35.2119H31.0516C31.5133 35.2119 31.8888 35.6129 31.8888 36.1059C31.8888 36.5989 31.5133 36.9999 31.0516 36.9999Z" fill="#606060"/>
</svg>
