<svg width="44" height="50" viewBox="0 0 44 50" fill="none" xmlns="http://www.w3.org/2000/svg">
<g clip-path="url(#clip0_189_1326)">
<path d="M41.7056 7.36598L39.5256 5.19702L40.6002 4.12787C40.5914 4.01395 40.5121 3.76857 40.2699 3.52758L40.1422 3.4005C39.8956 3.15513 39.6533 3.08064 39.5388 3.06749L38.4643 4.13664L36.2843 1.96768L37.4337 0.824043C38.0855 0.175546 39.028 -0.109267 40.0233 0.0397125C40.86 0.166783 41.6748 0.58743 42.3221 1.23154L42.4499 1.35862C43.934 2.83964 44.1145 4.97355 42.8594 6.22234L41.71 7.36598H41.7056Z" fill="#222222"/>
<path d="M7.32824 41.0743C5.90135 41.0743 4.67265 40.6011 3.77424 39.7116C1.39169 37.3367 2.18881 32.8235 5.59748 29.4365L31.0744 4.08811C32.3956 2.77359 34.0339 1.98926 35.4564 1.98926C36.3504 1.98926 37.1255 2.28722 37.6936 2.85684L40.8204 5.96787C42.353 7.49272 41.8201 10.3233 39.5785 12.5536L14.1015 37.902C12.1021 39.8913 9.56985 41.0787 7.32824 41.0787V41.0743ZM35.4564 5.05647C34.9763 5.05647 34.0867 5.4333 33.2544 6.26145L7.77744 31.6098C5.54903 33.827 4.97652 36.5743 5.9542 37.5471C6.26248 37.8538 6.72489 38.0115 7.32824 38.0115C8.75072 38.0115 10.5079 37.1396 11.9216 35.733L37.3985 10.3847C38.4158 9.37248 38.6624 8.37783 38.6008 8.10178L35.5488 5.06524C35.5488 5.06524 35.5004 5.05647 35.452 5.05647H35.4564Z" fill="#222222"/>
<path d="M0 43.4668L0.775098 40.7983C1.51496 38.2437 3.27214 36.7627 3.47032 36.6006L5.01171 38.4804L6.90541 40.014C6.74247 40.2111 5.25833 41.9595 2.68642 42.6956L0.00440396 43.4668H0Z" fill="#222222"/>
<path d="M34.8354 16.9351L26.666 8.80696L31.9332 3.56641L40.1025 11.6945L34.8354 16.9351ZM31.0259 8.80696L34.8354 12.5972L35.7426 11.6945L31.9332 7.90433L31.0259 8.80696Z" fill="#222222"/>
<path d="M33.6771 25.4399C33.2808 25.4399 32.8888 25.2909 32.585 24.9886C31.9816 24.3883 31.9816 23.4199 32.585 22.8196L40.9217 14.525C40.9745 14.1613 40.6046 12.9344 39.2834 11.6155C39.094 11.4271 38.8914 11.2431 38.6844 11.0765C38.0238 10.542 37.927 9.57361 38.4642 8.92073C39.0015 8.26347 39.9748 8.16708 40.631 8.70165C40.9173 8.93388 41.1947 9.18364 41.4589 9.44654C42.5247 10.5069 43.3306 11.7338 43.727 12.9037C44.2378 14.4111 44.0309 15.7738 43.1589 16.637L34.7649 24.9886C34.4654 25.2865 34.0691 25.4399 33.6771 25.4399Z" fill="#222222"/>
<path d="M35.9363 49.9998H2.69959C1.84963 49.9998 1.1582 49.3119 1.1582 48.4662C1.1582 47.6205 1.84963 46.9326 2.69959 46.9326H35.9363C36.7863 46.9326 37.4777 47.6205 37.4777 48.4662C37.4777 49.3119 36.7863 49.9998 35.9363 49.9998Z" fill="#AD9F35"/>
</g>
<defs>
<clipPath id="clip0_189_1326">
<rect width="44" height="50" fill="white"/>
</clipPath>
</defs>
</svg>
