<svg width="53" height="48" viewBox="0 0 53 48" fill="none" xmlns="http://www.w3.org/2000/svg">
<g clip-path="url(#clip0_189_1415)">
<path d="M45.779 39.8304H4.03276C1.80763 39.8304 0 38.0102 0 35.7695V4.06091C0 1.82024 1.80763 0 4.03276 0H47.4253C49.6504 0 51.4581 1.82024 51.4581 4.06091V33.5527C51.4581 34.4748 50.7132 35.2248 49.7975 35.2248C48.8818 35.2248 48.137 34.4748 48.137 33.5527V4.06091C48.137 3.67393 47.8096 3.34428 47.4253 3.34428H4.03276C3.64846 3.34428 3.3211 3.67393 3.3211 4.06091V35.7695C3.3211 36.1565 3.64846 36.4861 4.03276 36.4861H45.779C46.6947 36.4861 47.4395 37.2362 47.4395 38.1583C47.4395 39.0803 46.6947 39.8304 45.779 39.8304Z" fill="#222222"/>
<path d="M33.6096 33.7722H9.30385C7.60534 33.7722 6.21997 32.3771 6.21997 30.6668V9.16302C6.21997 7.45266 7.60534 6.05762 9.30385 6.05762H42.1543C43.8528 6.05762 45.2381 7.45266 45.2381 9.16302V21.7041H41.917V9.4019H9.54107V30.4279H33.6096V33.7722Z" fill="#222222"/>
<path d="M25.729 48.0002C24.8134 48.0002 24.0685 47.2501 24.0685 46.3281V38.1585C24.0685 37.2364 24.8134 36.4863 25.729 36.4863C26.6447 36.4863 27.3896 37.2364 27.3896 38.1585V46.3281C27.3896 47.2501 26.6447 48.0002 25.729 48.0002Z" fill="#222222"/>
<path d="M40.3467 47.9996H11.1162C10.2006 47.9996 9.45569 47.2495 9.45569 46.3274C9.45569 45.4053 10.2006 44.6553 11.1162 44.6553H40.3467C41.2623 44.6553 42.0072 45.4053 42.0072 46.3274C42.0072 47.2495 41.2623 47.9996 40.3467 47.9996Z" fill="#222222"/>
<path d="M48.3552 41.0583C47.6388 41.0583 46.9556 40.7859 46.429 40.2986L38.4489 32.8504L36.3898 35.1007C35.9106 35.6262 35.3081 35.9128 34.6913 35.9128C33.7187 35.9128 32.9169 35.2153 32.6464 34.1404L29.5151 21.6567C29.3206 20.8827 29.4629 20.1135 29.9042 19.5402C30.3359 18.9812 31.0144 18.6611 31.764 18.6611C31.8873 18.6611 32.0107 18.6707 32.1435 18.685L45.1385 20.4479C46.0542 20.5721 46.7326 21.0738 46.9983 21.8286C47.264 22.5835 47.06 23.4052 46.4337 24.0836L44.0995 26.6157L52.0796 34.0639C53.223 35.1341 53.3037 36.9496 52.2552 38.1153L50.4523 40.1219C49.9162 40.7143 49.1523 41.0583 48.3552 41.0583ZM38.4536 29.9839C39.1748 29.9839 39.858 30.2562 40.3846 30.7435L48.3552 38.1822L50.1534 36.1899L42.1732 28.7179C41.6181 28.1971 41.2955 27.49 41.2671 26.7256C41.2386 25.9612 41.509 25.2303 42.0214 24.6665L43.459 23.109L32.4519 21.6137L35.123 32.258L36.3708 30.8964C36.9069 30.3136 37.6708 29.9791 38.4631 29.9791L38.4536 29.9839Z" fill="#AD9F35"/>
</g>
<defs>
<clipPath id="clip0_189_1415">
<rect width="53" height="48" fill="white"/>
</clipPath>
</defs>
</svg>
