<svg width="65" height="39" viewBox="0 0 65 39" fill="none" xmlns="http://www.w3.org/2000/svg">
<g clip-path="url(#clip0_189_1370)">
<path d="M60.9545 32.5873H56.1379V29.2548H60.9545C61.34 29.2548 61.6684 28.9263 61.6684 28.5407V19.9189C61.6684 19.5333 61.34 19.2048 60.9545 19.2048H54.4197C52.3874 19.2048 50.3456 17.6814 49.7602 15.7343L46.3762 4.42273C46.2096 3.87048 45.4862 3.33252 44.9103 3.33252H19.1664C18.5905 3.33252 17.867 3.87524 17.7004 4.42273L14.3165 15.7343C13.7358 17.6814 11.6892 19.2048 9.65695 19.2048H4.04554C3.66003 19.2048 3.33162 19.5333 3.33162 19.9189V28.5407C3.33162 28.9263 3.66003 29.2548 4.04554 29.2548H8.86212V32.5873H4.04554C1.81336 32.5873 0 30.7734 0 28.5407V19.9189C0 17.6862 1.81336 15.8723 4.04554 15.8723H9.65695C10.2328 15.8723 10.9563 15.3296 11.1229 14.7821L14.5068 3.47058C15.0875 1.52344 17.1341 0 19.1664 0H44.9103C46.9426 0 48.9844 1.52344 49.5698 3.47058L52.9538 14.7821C53.1204 15.3344 53.8438 15.8723 54.4197 15.8723H60.9545C63.1866 15.8723 65 17.6862 65 19.9189V28.5407C65 30.7734 63.1866 32.5873 60.9545 32.5873Z" fill="#222222"/>
<path d="M43.4682 29.2549H21.5271V32.5874H43.4682V29.2549Z" fill="#222222"/>
<path d="M15.1971 38.9999C10.747 38.9999 7.125 35.377 7.125 30.9257C7.125 26.4744 10.747 22.8467 15.1971 22.8467C19.6471 22.8467 23.2739 26.4696 23.2739 30.9257C23.2739 35.3817 19.6519 38.9999 15.1971 38.9999ZM15.1971 26.1792C12.5793 26.1792 10.4566 28.3072 10.4566 30.9257C10.4566 33.5441 12.5841 35.6674 15.1971 35.6674C17.81 35.6674 19.9422 33.5393 19.9422 30.9257C19.9422 28.312 17.8148 26.1792 15.1971 26.1792Z" fill="#222222"/>
<path d="M49.8031 38.9999C45.3483 38.9999 41.7263 35.377 41.7263 30.9257C41.7263 26.4744 45.3483 22.8467 49.8031 22.8467C54.258 22.8467 57.8799 26.4696 57.8799 30.9257C57.8799 35.3817 54.258 38.9999 49.8031 38.9999ZM49.8031 26.1792C47.1854 26.1792 45.0579 28.3072 45.0579 30.9257C45.0579 33.5441 47.1854 35.6674 49.8031 35.6674C52.4208 35.6674 54.5483 33.5393 54.5483 30.9257C54.5483 28.312 52.4208 26.1792 49.8031 26.1792Z" fill="#222222"/>
<path d="M39.532 10.2358L40.4839 17.5103H23.7639L24.9205 10.2358H39.532ZM40.0746 6.90332H24.4588C23.1499 6.90332 21.9125 7.96021 21.7031 9.25513L20.2324 18.491C20.0277 19.7859 20.9273 20.8428 22.2361 20.8428H41.8975C43.2063 20.8428 44.1392 19.7811 43.9678 18.4814L42.7589 9.26465C42.5876 7.96497 41.3787 6.90332 40.0698 6.90332H40.0746Z" fill="#AD9F35"/>
</g>
<defs>
<clipPath id="clip0_189_1370">
<rect width="65" height="39" fill="white"/>
</clipPath>
</defs>
</svg>
