<svg width="80" height="80" viewBox="0 0 80 80" fill="none" xmlns="http://www.w3.org/2000/svg">
<circle cx="40" cy="40" r="40" fill="#D9D9D9"/>
<path d="M28.0436 55.9004C27.7927 55.9004 27.5451 55.8191 27.3437 55.6661L24.9766 53.8832C22.3784 51.9277 20.6649 49.1394 20.1565 46.0354C19.6415 42.9087 20.4074 39.834 22.309 37.3808L32.3816 24.3859C34.544 21.6008 37.8917 20 41.5661 20C44.2964 20 47.0201 20.9175 49.2353 22.5866L51.6024 24.3696C52.1108 24.7503 52.2066 25.4661 51.8203 25.9671L45.7094 33.8506C45.3231 34.3517 44.5968 34.4461 44.0884 34.0654L42.9758 33.2292C42.2198 32.6598 41.302 32.3475 40.3842 32.3475C39.2056 32.3475 38.1426 32.8485 37.4658 33.7205L32.7778 39.769C31.5232 41.386 31.959 43.7937 33.7418 45.1374L34.8544 45.9736C35.0987 46.1558 35.2571 46.4291 35.2968 46.7285C35.3364 47.0278 35.2571 47.3304 35.069 47.5711L28.9581 55.4546C28.7732 55.6954 28.4959 55.8516 28.1921 55.8906C28.1426 55.8971 28.0898 55.9004 28.0403 55.9004H28.0436ZM41.5661 22.2775C38.618 22.2775 35.9372 23.5497 34.2172 25.7687L24.1413 38.7669C22.6293 40.719 22.0218 43.1723 22.4345 45.6743C22.8505 48.2023 24.2502 50.4734 26.3764 52.0741L27.8257 53.1641L32.5335 47.0896L32.3387 46.9432C29.5424 44.8381 28.9151 40.9956 30.9389 38.3797L35.6269 32.3312C36.7461 30.8899 38.4793 30.0634 40.3809 30.0634C41.8038 30.0634 43.2201 30.5417 44.3756 31.4104L44.5704 31.5568L49.2782 25.4823L47.8289 24.3924C46.0131 23.0259 43.788 22.2743 41.5628 22.2743L41.5661 22.2775Z" fill="#606060"/>
<path d="M40.2951 47.2166C39.8593 47.2166 39.4401 46.9693 39.2453 46.5529C38.9779 45.9802 39.2321 45.3067 39.8131 45.0432C40.9653 44.5194 42.0218 43.6669 42.8702 42.5737C43.7154 41.4805 44.2733 40.2539 44.4813 39.0208C44.587 38.3993 45.1812 37.9796 45.8118 38.0837C46.4423 38.1878 46.8649 38.7735 46.7626 39.3949C46.4919 40.9925 45.7821 42.5705 44.7058 43.9565C43.6295 45.3425 42.2727 46.4325 40.7804 47.1125C40.6253 47.1841 40.4602 47.2166 40.2984 47.2166H40.2951Z" fill="#606060"/>
<path d="M40.2951 47.2166C39.8593 47.2166 39.4401 46.9693 39.2453 46.5529C38.9779 45.9802 39.2321 45.3067 39.8131 45.0432C40.9653 44.5194 42.0218 43.6669 42.8702 42.5737C43.7154 41.4805 44.2733 40.2539 44.4813 39.0208C44.587 38.3993 45.1812 37.9796 45.8118 38.0837C46.4423 38.1878 46.8649 38.7735 46.7626 39.3949C46.4919 40.9925 45.7821 42.5705 44.7058 43.9565C43.6295 45.3425 42.2727 46.4325 40.7804 47.1125C40.6253 47.1841 40.4602 47.2166 40.2984 47.2166H40.2951Z" fill="#606060"/>
<path d="M41.1171 53.9842C40.6814 53.9842 40.2621 53.7369 40.0673 53.3204C39.7999 52.7478 40.0541 52.0743 40.6351 51.8107C43.2829 50.6102 45.7061 48.658 47.6374 46.1625C49.5687 43.6702 50.8464 40.8558 51.3251 38.0219C51.4307 37.4005 52.025 36.984 52.6556 37.0849C53.2861 37.189 53.7087 37.7746 53.6064 38.3961C53.0649 41.5944 51.6354 44.7602 49.4763 47.5453C47.3172 50.3336 44.5935 52.5233 41.6058 53.8768C41.4506 53.9484 41.2855 53.9809 41.1237 53.9809L41.1171 53.9842Z" fill="#606060"/>
<path d="M42.9824 59.9998C42.5466 59.9998 42.1273 59.7558 41.9325 59.3361C41.6651 58.7635 41.9193 58.09 42.5004 57.8264C46.2706 56.115 49.7173 53.3397 52.4607 49.7965C55.2075 46.2533 57.02 42.2481 57.7034 38.2136C57.809 37.5922 58.4066 37.1725 59.0338 37.2766C59.6644 37.3807 60.087 37.9664 59.9846 38.5878C59.2385 42.9899 57.2742 47.3433 54.2996 51.1793C51.325 55.0153 47.5812 58.0282 43.4677 59.8957C43.3125 59.9673 43.1474 59.9998 42.9857 59.9998H42.9824Z" fill="#606060"/>
</svg>
