<svg width="50" height="50" viewBox="0 0 50 50" fill="none" xmlns="http://www.w3.org/2000/svg">
<circle cx="25" cy="25" r="25" fill="#E6E3C8"/>
<path d="M25.5001 29.2813C23.6989 29.2813 22.2322 27.8243 22.2322 26.0349C22.2322 24.2456 23.6989 22.7886 25.5001 22.7886C27.3014 22.7886 28.7681 24.2456 28.7681 26.0349C28.7681 27.8243 27.3014 29.2813 25.5001 29.2813ZM25.5001 24.3822C24.5834 24.3822 23.8364 25.1243 23.8364 26.0349C23.8364 26.9456 24.5834 27.6877 25.5001 27.6877C26.4168 27.6877 27.1639 26.9456 27.1639 26.0349C27.1639 25.1243 26.4168 24.3822 25.5001 24.3822Z" fill="#606060"/>
<path d="M25.5 38.8544C22.3123 38.8544 20.5935 32.2501 20.5935 26.0351C20.5935 19.8201 22.3123 13.2158 25.5 13.2158C28.6877 13.2158 30.4065 19.8201 30.4065 26.0351C30.4065 32.2501 28.6877 38.8544 25.5 38.8544ZM25.5 14.6956C24.0723 14.6956 22.0831 19.0097 22.0831 26.0351C22.0831 33.0606 24.0723 37.3747 25.5 37.3747C26.9277 37.3747 28.9169 33.0606 28.9169 26.0351C28.9169 19.0097 26.9277 14.6956 25.5 14.6956Z" fill="#606060"/>
<path d="M25.4998 15.9111C24.4135 15.9111 23.5312 15.0347 23.5312 13.9556C23.5312 12.8765 24.4135 12 25.4998 12C26.5861 12 27.4684 12.8765 27.4684 13.9556C27.4684 15.0347 26.5861 15.9111 25.4998 15.9111ZM25.4998 13.4798C25.2363 13.4798 25.0208 13.6938 25.0208 13.9556C25.0208 14.2174 25.2363 14.4314 25.4998 14.4314C25.7634 14.4314 25.9788 14.2174 25.9788 13.9556C25.9788 13.6938 25.7634 13.4798 25.4998 13.4798Z" fill="#606060"/>
<path d="M17.4929 33.798C15.5221 33.798 14.681 33.0627 14.3235 32.4458C13.8079 31.5602 13.6841 29.9461 16.0194 27.2893C17.6671 25.4135 20.1627 23.4693 23.0457 21.8165C26.9117 19.5991 30.8214 18.2742 33.5049 18.2742C35.4758 18.2742 36.3168 19.0095 36.6743 19.6264C37.1899 20.512 37.3137 22.1261 34.9785 24.7829C33.3307 26.6587 30.8351 28.6029 27.9522 30.2557C24.0861 32.4731 20.1765 33.798 17.4929 33.798ZM33.5049 19.7517C31.1078 19.7517 27.3861 21.0334 23.7905 23.0959C21.0473 24.669 18.6846 26.5039 17.1423 28.2614C15.5748 30.044 15.325 31.2096 15.6137 31.7059C15.8429 32.102 16.5098 32.3183 17.4929 32.3183C19.89 32.3183 23.6117 31.0366 27.2074 28.9763C29.9505 27.4032 32.3132 25.5683 33.8555 23.8108C35.4231 22.0259 35.6728 20.8626 35.3841 20.3663C35.1549 19.9702 34.4858 19.7539 33.5026 19.7539L33.5049 19.7517Z" fill="#606060"/>
<path d="M14.9697 34.0303C14.2684 34.0303 13.6153 33.6547 13.2646 33.0514C13.0011 32.5984 12.9324 32.0725 13.0676 31.5671C13.2028 31.0617 13.5305 30.6406 13.9842 30.3787C14.2844 30.208 14.6236 30.1169 14.9674 30.1169C15.6686 30.1169 16.324 30.4926 16.6724 31.0959C16.9359 31.5489 17.0047 32.0748 16.8695 32.5802C16.7343 33.0856 16.4088 33.5067 15.9528 33.7685C15.6526 33.9393 15.3134 34.0303 14.9697 34.0303ZM14.9697 31.599C14.8849 31.599 14.8047 31.6195 14.7313 31.6627C14.6213 31.7265 14.5411 31.8289 14.509 31.9519C14.4769 32.0748 14.493 32.2023 14.5572 32.3115C14.6855 32.5301 14.988 32.6143 15.2126 32.4868C15.3226 32.4231 15.4028 32.3207 15.4349 32.1977C15.467 32.0748 15.4509 31.9473 15.3867 31.838C15.302 31.69 15.1415 31.599 14.972 31.599H14.9697Z" fill="#606060"/>
<path d="M33.5049 33.798C30.8214 33.798 26.9117 32.4753 23.0457 30.2579C20.1627 28.6051 17.6694 26.6609 16.0194 24.7851C13.6841 22.126 13.8079 20.5142 14.3235 19.6286C14.681 19.0117 15.5221 18.2764 17.4929 18.2764C20.1765 18.2764 24.0861 19.6013 27.9522 21.8187C30.8351 23.4715 33.3285 25.4157 34.9785 27.2915C37.3137 29.9506 37.1899 31.5624 36.6743 32.448C36.3168 33.0649 35.4735 33.8002 33.5049 33.8002V33.798ZM17.4929 19.7516C16.5098 19.7516 15.8429 19.9701 15.6137 20.364C15.325 20.8603 15.5771 22.0236 17.1423 23.8084C18.6869 25.5659 21.0473 27.4008 23.7905 28.9739C27.3861 31.0365 31.1078 32.3159 33.5049 32.3159C34.488 32.3159 35.1549 32.0974 35.3864 31.7035C35.6751 31.2072 35.4231 30.0439 33.8578 28.2591C32.3132 26.5016 29.9528 24.6667 27.2097 23.0936C23.614 21.031 19.8923 19.7493 17.4952 19.7493L17.4929 19.7516Z" fill="#606060"/>
<path d="M36.0304 34.0303C35.6866 34.0303 35.3451 33.9392 35.0472 33.7685C34.5912 33.5067 34.2658 33.0855 34.1306 32.5801C33.9953 32.0747 34.0641 31.5488 34.3276 31.0958C34.6783 30.4925 35.3314 30.1191 36.0326 30.1191C36.3764 30.1191 36.7179 30.2102 37.0158 30.3809C37.4718 30.6427 37.7972 31.0639 37.9325 31.5693C38.0677 32.0747 37.9989 32.6006 37.7354 33.0536C37.3847 33.6569 36.7316 34.0325 36.0304 34.0325V34.0303ZM36.0304 31.5989C35.8585 31.5989 35.7004 31.69 35.6133 31.8379C35.5491 31.9472 35.5331 32.077 35.5651 32.1999C35.5972 32.3229 35.6774 32.4253 35.7874 32.489C36.012 32.6188 36.3145 32.5346 36.4406 32.316C36.5047 32.2045 36.5208 32.077 36.4887 31.954C36.4566 31.8311 36.3764 31.7287 36.2664 31.6649C36.1931 31.6217 36.1129 31.6012 36.0281 31.6012L36.0304 31.5989Z" fill="#606060"/>
</svg>
