<svg width="50" height="50" viewBox="0 0 50 50" fill="none" xmlns="http://www.w3.org/2000/svg">
<circle cx="25" cy="25" r="25" fill="#AD9F35" fill-opacity="0.8"/>
<circle cx="25" cy="25" r="25" fill="#E6E3C8"/>
<path d="M34.5507 25.2969C34.2782 25.2969 34.0225 25.1933 33.8318 25.0027L26.6383 17.8906C26.2422 17.4989 26.2422 16.8607 26.6383 16.469L29.8494 13.2943C30.0401 13.1036 30.2958 13 30.5683 13C30.8408 13 31.0965 13.1036 31.2872 13.2943L38.4807 20.4063C38.8769 20.798 38.8769 21.4363 38.4807 21.8279L35.2697 25.0027C35.0768 25.1933 34.8232 25.2969 34.5507 25.2969ZM27.9944 17.1798L34.5507 23.6619L37.1246 21.1171L30.5683 14.635L27.9944 17.1798Z" fill="#606060"/>
<path d="M16.0365 26.7434C15.6907 26.7434 15.3847 26.5009 15.3176 26.1528C14.9718 24.3561 15.544 22.5118 16.8519 21.2207L19.059 19.0386C19.3461 18.7547 19.8093 18.7547 20.0965 19.0386C20.3836 19.3225 20.3836 19.7805 20.0965 20.0644L17.8894 22.2465C16.9273 23.1977 16.5039 24.5571 16.7596 25.8813C16.8351 26.275 16.5752 26.6543 16.177 26.7289C16.1308 26.7371 16.0847 26.7413 16.0386 26.7413L16.0365 26.7434Z" fill="#606060"/>
<path d="M32.1362 25.9312C31.9476 25.9312 31.7611 25.8607 31.6185 25.7178L25.9006 20.0646C25.5946 19.762 25.2467 19.5113 24.8673 19.3185C24.5068 19.1362 24.3642 18.6989 24.5487 18.3425C24.7331 17.9861 25.1754 17.8452 25.5359 18.0275C26.0536 18.2886 26.5252 18.6285 26.9381 19.0388L32.6561 24.692C32.9432 24.9759 32.9432 25.4339 32.6561 25.7178C32.5135 25.8587 32.3249 25.9312 32.1383 25.9312H32.1362Z" fill="#606060"/>
<path d="M33.4546 31.0805C32.8488 31.0805 32.2829 30.8505 31.8574 30.4298L29.5141 28.113C29.2269 27.8291 29.2269 27.3711 29.5141 27.0872C29.8012 26.8033 30.2644 26.8033 30.5516 27.0872L32.8949 29.404C33.0458 29.5532 33.2596 29.6278 33.4692 29.6278C33.6977 29.6237 33.9157 29.5304 34.0834 29.3667C34.251 29.201 34.3433 28.9854 34.3475 28.7596C34.3517 28.542 34.2699 28.341 34.1211 28.1918L31.7778 25.8749C31.4906 25.591 31.4906 25.1331 31.7778 24.8492C32.0649 24.5653 32.5281 24.5653 32.8153 24.8492L35.1586 27.166C35.5925 27.5949 35.8252 28.169 35.8147 28.7824C35.8042 29.3875 35.559 29.9594 35.1209 30.3904C34.6828 30.8236 34.1064 31.066 33.4944 31.0764C33.4818 31.0764 33.4671 31.0764 33.4546 31.0764V31.0805Z" fill="#606060"/>
<path d="M31.738 33.8552C31.1553 33.8552 30.5789 33.6397 30.1409 33.2065L27.7975 30.8877C27.5104 30.6038 27.5104 30.1458 27.7975 29.8619C28.0847 29.578 28.5479 29.578 28.835 29.8619L31.1784 32.1787C31.4949 32.4916 32.0294 32.475 32.3668 32.1414C32.7043 31.8078 32.721 31.2793 32.4045 30.9664L30.0612 28.6496C29.7741 28.3657 29.7741 27.9077 30.0612 27.6238C30.3484 27.3399 30.8116 27.3399 31.0987 27.6238L33.4421 29.9406C34.3308 30.8193 34.314 32.2678 33.4043 33.1672C32.9432 33.6252 32.3375 33.8531 31.738 33.8531V33.8552Z" fill="#606060"/>
<path d="M29.4742 36.0915C28.8685 36.0915 28.3026 35.8615 27.8771 35.4408L25.5337 33.124C25.2466 32.8401 25.2466 32.3821 25.5337 32.0982C25.8209 31.8143 26.2841 31.8143 26.5712 32.0982L28.9146 34.415C29.0655 34.5642 29.2709 34.6471 29.4889 34.6409C29.7174 34.6368 29.9353 34.5435 30.103 34.3798C30.2707 34.2161 30.3629 33.9985 30.3671 33.7726C30.3713 33.555 30.2896 33.354 30.1387 33.2048L27.7953 30.8859C27.5082 30.602 27.5082 30.144 27.7953 29.8601C28.0825 29.5762 28.5457 29.5762 28.8328 29.8601L31.1762 32.177C31.6101 32.6059 31.8448 33.1799 31.8343 33.7933C31.8238 34.3984 31.5786 34.9704 31.1405 35.4014C30.7025 35.8325 30.1261 36.077 29.514 36.0874C29.5015 36.0874 29.4889 36.0874 29.4742 36.0874V36.0915Z" fill="#606060"/>
<path d="M26.6676 37.7906C26.0619 37.7906 25.496 37.5606 25.0705 37.1399L24.1734 36.253C23.8862 35.9691 23.8862 35.5111 24.1734 35.2272C24.4605 34.9433 24.9237 34.9433 25.2109 35.2272L26.108 36.1141C26.2589 36.2633 26.4664 36.3462 26.6823 36.34C26.9108 36.3359 27.1287 36.2426 27.2964 36.0789C27.4641 35.9131 27.5584 35.6976 27.5605 35.4717C27.5647 35.2541 27.483 35.0531 27.3342 34.9039L24.9908 32.5871C24.7037 32.3032 24.7037 31.8452 24.9908 31.5613C25.278 31.2774 25.7412 31.2774 26.0283 31.5613L28.3717 33.8781C28.8056 34.3071 29.0382 34.8811 29.0277 35.4945C29.0173 36.0996 28.7699 36.6695 28.334 37.1026C27.8959 37.5357 27.3195 37.7782 26.7074 37.7885C26.6949 37.7885 26.6823 37.7885 26.6676 37.7885V37.7906Z" fill="#606060"/>
<path d="M14.7246 25.0543C14.4521 25.0543 14.1964 24.9507 14.0057 24.7601L11.2976 22.0848C11.1048 21.8941 11 21.6434 11 21.374C11 21.1046 11.1048 20.8518 11.2976 20.6632L18.4911 13.5511C18.6819 13.3605 18.9376 13.2568 19.2101 13.2568C19.4825 13.2568 19.7362 13.3605 19.929 13.5511L22.637 16.2285C23.0332 16.6202 23.0332 17.2584 22.637 17.6501L15.4435 24.7601C15.2528 24.9507 14.9971 25.0543 14.7246 25.0543ZM12.6538 21.3719L14.7246 23.4193L21.2809 16.9372L19.2101 14.8898L12.6538 21.374V21.3719Z" fill="#606060"/>
<path d="M15.5652 31.2878C14.9385 31.2878 14.3474 31.0433 13.8988 30.6019C13.4608 30.1709 13.2155 29.5989 13.2051 28.9938C13.1946 28.3804 13.4272 27.8064 13.8611 27.3774L16.2044 25.0606C16.6278 24.642 17.1959 24.4099 17.8016 24.4099C18.4073 24.4099 19.0194 24.6544 19.4658 25.0958C19.9039 25.5289 20.1491 26.0988 20.1596 26.7039C20.1701 27.3173 19.9374 27.8913 19.5036 28.3224L17.1602 30.6392C16.7368 31.0578 16.1688 31.2899 15.5631 31.2899L15.5652 31.2878ZM17.8037 25.8584C17.5899 25.8584 17.3908 25.9393 17.2441 26.0843L14.9007 28.4011C14.7498 28.5503 14.6702 28.7513 14.6744 28.9689C14.6785 29.1948 14.7729 29.4103 14.9385 29.5761C15.1082 29.746 15.3325 29.8372 15.5673 29.8372C15.781 29.8372 15.9802 29.7564 16.1269 29.6113L18.4702 27.2945C18.6211 27.1453 18.7008 26.9443 18.6987 26.7267C18.6945 26.5008 18.6002 26.2853 18.4346 26.1195C18.2627 25.9496 18.0405 25.8584 17.8079 25.8584H17.8037Z" fill="#606060"/>
<path d="M17.2839 34.0627C16.6572 34.0627 16.0661 33.8182 15.6176 33.3747C15.1795 32.9416 14.9343 32.3717 14.9238 31.7666C14.9133 31.1532 15.146 30.5771 15.5799 30.1482L17.9232 27.8314C18.3466 27.4128 18.9146 27.1807 19.5203 27.1807C20.1261 27.1807 20.7381 27.4252 21.1867 27.8666C21.6247 28.2997 21.8721 28.8716 21.8805 29.4768C21.8909 30.0902 21.6562 30.6642 21.2223 31.0952L18.879 33.412C18.4535 33.8306 17.8876 34.0606 17.2818 34.0606L17.2839 34.0627ZM19.5224 28.6333C19.3087 28.6333 19.1095 28.7142 18.9628 28.8592L16.6195 31.176C16.4686 31.3252 16.3889 31.5262 16.3931 31.7438C16.3973 31.9697 16.4916 32.1852 16.6572 32.351C16.827 32.5209 17.0512 32.6121 17.286 32.6121C17.4998 32.6121 17.6989 32.5313 17.8456 32.3883L20.189 30.0715C20.3399 29.9223 20.4216 29.7213 20.4174 29.5037C20.4132 29.2778 20.3189 29.0623 20.1533 28.8965C19.9836 28.7287 19.7593 28.6354 19.5245 28.6354L19.5224 28.6333Z" fill="#606060"/>
<path d="M19.5454 36.3008C18.9187 36.3008 18.3276 36.0562 17.8791 35.6128C17.4326 35.1714 17.1853 34.5849 17.1853 33.9653C17.1853 33.3664 17.4201 32.8048 17.8434 32.3862L20.1868 30.0694C20.6102 29.6508 21.1782 29.4187 21.7839 29.4187C22.3897 29.4187 23.0017 29.6632 23.4482 30.1046C23.8862 30.5377 24.1315 31.1076 24.142 31.7127C24.1524 32.3261 23.9177 32.9001 23.4838 33.3291L21.1405 35.6459C20.7171 36.0645 20.1491 36.2966 19.5433 36.2966L19.5454 36.3008ZM21.786 30.8714C21.5722 30.8714 21.3731 30.9522 21.2264 31.0973L18.8831 33.4141C18.7363 33.5591 18.6546 33.756 18.6546 33.9674C18.6546 34.1995 18.7489 34.4191 18.9187 34.587C19.0906 34.7569 19.3128 34.8481 19.5475 34.8481C19.7613 34.8481 19.9604 34.7673 20.1071 34.6222L22.4505 32.3054C22.6014 32.1562 22.681 31.9552 22.6768 31.7376C22.6727 31.5117 22.5804 31.2962 22.4127 31.1304C22.243 30.9626 22.0187 30.8693 21.786 30.8693V30.8714Z" fill="#606060"/>
<path d="M22.3523 37.9979C21.7256 37.9979 21.1345 37.7534 20.6859 37.312C20.2479 36.8789 20.0026 36.309 19.9922 35.7039C19.9817 35.0905 20.2143 34.5165 20.6482 34.0854L22.9915 31.7686C23.4149 31.35 23.983 31.1179 24.5887 31.1179C25.1945 31.1179 25.8065 31.3624 26.255 31.8059C26.691 32.239 26.9383 32.8089 26.9488 33.414C26.9593 34.0274 26.7266 34.6035 26.2907 35.0325L23.9473 37.3493C23.5239 37.7679 22.9559 38 22.3502 38L22.3523 37.9979ZM24.5908 32.5685C24.377 32.5685 24.1779 32.6493 24.0312 32.7944L21.6878 35.1112C21.5369 35.2604 21.4573 35.4614 21.4615 35.679C21.4657 35.9049 21.56 36.1204 21.7256 36.2862C21.8953 36.4541 22.1196 36.5473 22.3544 36.5473C22.5682 36.5473 22.7673 36.4665 22.914 36.3214L25.2573 34.0046C25.4082 33.8554 25.4879 33.6544 25.4837 33.4368C25.4795 33.2109 25.3852 32.9954 25.2196 32.8296C25.0498 32.6618 24.8256 32.5685 24.5908 32.5685Z" fill="#606060"/>
<path d="M20.3315 23.7571C19.644 23.7571 19.0005 23.4877 18.5226 22.9986C18.0552 22.522 17.8037 21.892 17.8142 21.2268C17.8246 20.5616 18.0971 19.942 18.5813 19.4778L21.7023 16.5559C22.1697 16.1083 22.7901 15.8596 23.4482 15.8596C24.1064 15.8596 24.7792 16.129 25.2571 16.6181C25.7245 17.0968 25.976 17.7247 25.9655 18.3899C25.9551 19.0551 25.6826 19.6747 25.1984 20.1389L22.0774 23.0608C21.61 23.5063 20.9896 23.7571 20.3336 23.7571H20.3315ZM23.4461 17.3123C23.1716 17.3123 22.9137 17.4159 22.7146 17.6045L19.5937 20.5264C19.3987 20.715 19.2835 20.9719 19.2793 21.2496C19.2751 21.5273 19.3799 21.7884 19.5748 21.9894C19.7739 22.1946 20.0422 22.3065 20.3294 22.3065C20.6039 22.3065 20.8618 22.2029 21.0588 22.0143L24.1797 19.0924C24.3768 18.9038 24.4899 18.6448 24.4941 18.3692C24.4983 18.0915 24.3935 17.8283 24.1986 17.6293C23.9995 17.4263 23.7312 17.3123 23.444 17.3123H23.4461Z" fill="#606060"/>
<path d="M33.6684 27.1104C33.5845 27.1104 33.4986 27.0959 33.4168 27.0669C33.0354 26.928 32.8404 26.5115 32.9809 26.1364L33.6097 24.4392C33.748 24.0621 34.1714 23.8694 34.5508 24.0082C34.9323 24.147 35.1272 24.5636 34.9868 24.9387L34.358 26.6359C34.249 26.9301 33.9681 27.1125 33.6684 27.1125V27.1104Z" fill="#606060"/>
<path d="M25.5297 19.3993C25.2908 19.3993 25.0581 19.2854 24.9177 19.074C24.6934 18.7404 24.7877 18.2907 25.1252 18.0689L26.8963 16.9126C27.2338 16.6929 27.6886 16.7841 27.9129 17.1178C28.1372 17.4514 28.0428 17.9011 27.7054 18.1228L25.9343 19.2791C25.8106 19.36 25.6702 19.3993 25.5318 19.3993H25.5297Z" fill="#606060"/>
</svg>
