<svg width="50" height="50" viewBox="0 0 50 50" fill="none" xmlns="http://www.w3.org/2000/svg">
<g clip-path="url(#clip0_189_1427)">
<path d="M22.8294 49.9998C10.2437 49.9998 0 39.7282 0 27.0981C0 14.4679 10.2437 4.19629 22.8294 4.19629C23.6597 4.19629 24.3321 4.8708 24.3321 5.70376V25.5951H44.1606C44.991 25.5951 45.6588 26.2696 45.6588 27.1026C45.6588 39.7327 35.4152 50.0044 22.8294 50.0044V49.9998ZM21.3312 7.26102C11.0921 8.03513 3.0009 16.6363 3.0009 27.0981C3.0009 37.5598 11.8953 46.9894 22.8294 46.9894C33.7635 46.9894 41.8321 38.8726 42.6038 28.601H22.8294C21.9991 28.601 21.3312 27.9265 21.3312 27.0935V7.26555V7.26102Z" fill="#222222"/>
<path d="M48.5018 22.4627H29.111C28.2807 22.4627 27.6083 21.7881 27.6083 20.9552V1.50747C27.6083 0.674513 28.2807 0 29.111 0C40.6317 0 50.0045 9.40244 50.0045 20.9597C50.0045 21.7927 49.3321 22.4672 48.5018 22.4672V22.4627ZM30.6092 19.4522H46.9359C46.2139 10.7515 39.278 3.7981 30.6092 3.07379V19.4522Z" fill="#AD9F35"/>
<path d="M30.0902 11.7291C29.7608 11.7291 29.4314 11.6024 29.1787 11.3534C28.6778 10.8509 28.6778 10.0315 29.1787 9.52906L35.3474 3.34073C35.8483 2.83824 36.6651 2.83824 37.166 3.34073C37.6669 3.84322 37.6669 4.6626 37.166 5.16509L30.9972 11.3534C30.7491 11.6069 30.4151 11.7291 30.0902 11.7291Z" fill="#AD9F35"/>
<path d="M30.0902 20.5568C29.7427 20.5568 29.3998 20.4165 29.1471 20.1449C28.6642 19.6243 28.6958 18.8049 29.2148 18.3205L42.0352 6.39657C42.5541 5.91219 43.3709 5.94388 43.8538 6.46448C44.3366 6.98508 44.305 7.80445 43.7861 8.28883L30.9657 20.2128C30.7175 20.4437 30.4061 20.5568 30.0902 20.5568Z" fill="#AD9F35"/>
<path d="M38.222 22.005C37.8745 22.005 37.527 21.8646 37.2743 21.584C36.796 21.0589 36.8321 20.244 37.3556 19.7596L45.5505 12.2359C46.074 11.756 46.8863 11.7922 47.3691 12.3173C47.8474 12.8425 47.8113 13.6573 47.2879 14.1417L39.0929 21.67C38.8447 21.8963 38.5334 22.0095 38.2265 22.0095L38.222 22.005Z" fill="#AD9F35"/>
</g>
<defs>
<clipPath id="clip0_189_1427">
<rect width="50" height="50" fill="white"/>
</clipPath>
</defs>
</svg>
