<svg width="44" height="51" viewBox="0 0 44 51" fill="none" xmlns="http://www.w3.org/2000/svg">
<g clip-path="url(#clip0_189_1471)">
<path d="M34.4724 45.7068H4.03713C1.80959 45.7068 0 43.88 0 41.6314V4.0754C0 1.82674 1.80959 0 4.03713 0H34.4724C36.6999 0 38.5095 1.82674 38.5095 4.0754V41.6314C38.5095 43.88 36.6999 45.7068 34.4724 45.7068ZM4.03713 3.35621C3.65242 3.35621 3.3247 3.68704 3.3247 4.0754V41.6314C3.3247 42.0197 3.65242 42.3506 4.03713 42.3506H34.4724C34.8571 42.3506 35.1848 42.0197 35.1848 41.6314V4.0754C35.1848 3.68704 34.8571 3.35621 34.4724 3.35621H4.03713Z" fill="#222222"/>
<path d="M39.9628 51H9.49905C7.2335 51 5.46191 49.6192 5.46191 47.8548V44.7239H8.78661V47.5096C8.93385 47.5767 9.18083 47.6438 9.49905 47.6438H39.9675C40.3522 47.6438 40.68 47.313 40.68 46.9246V8.58712C40.68 8.17478 40.4187 7.86793 40.186 7.86793H38.0297V4.51172H40.186C42.2901 4.51172 44.0047 6.33846 44.0047 8.58712V46.9246C44.0047 49.1733 42.1951 51 39.9675 51H39.9628Z" fill="#222222"/>
<path d="M15.9206 10.7928V19.5237H8.57777V10.7928H15.9206ZM16.3956 7.91602H8.10281C6.79668 7.91602 5.72803 8.9948 5.72803 10.3133V20.0032C5.72803 21.3217 6.79668 22.4005 8.10281 22.4005H16.3956C17.7017 22.4005 18.7703 21.3217 18.7703 20.0032V10.3133C18.7703 8.9948 17.7017 7.91602 16.3956 7.91602Z" fill="#AD9F35"/>
<path d="M30.2073 21.3699H22.7314C21.8148 21.3699 21.0691 20.6171 21.0691 19.6918C21.0691 18.7664 21.8148 18.0137 22.7314 18.0137H30.2073C31.1239 18.0137 31.8696 18.7664 31.8696 19.6918C31.8696 20.6171 31.1239 21.3699 30.2073 21.3699Z" fill="#222222"/>
<path d="M30.2073 29.4343H7.39038C6.47371 29.4343 5.72803 28.6816 5.72803 27.7562C5.72803 26.8309 6.47371 26.0781 7.39038 26.0781H30.2073C31.124 26.0781 31.8696 26.8309 31.8696 27.7562C31.8696 28.6816 31.124 29.4343 30.2073 29.4343Z" fill="#222222"/>
<path d="M30.2073 37.2107H7.39038C6.47371 37.2107 5.72803 36.458 5.72803 35.5326C5.72803 34.6072 6.47371 33.8545 7.39038 33.8545H30.2073C31.124 33.8545 31.8696 34.6072 31.8696 35.5326C31.8696 36.458 31.124 37.2107 30.2073 37.2107Z" fill="#222222"/>
<path d="M30.2073 13.866H22.7314C21.8148 13.866 21.0691 13.1132 21.0691 12.1879C21.0691 11.2625 21.8148 10.5098 22.7314 10.5098H30.2073C31.1239 10.5098 31.8696 11.2625 31.8696 12.1879C31.8696 13.1132 31.1239 13.866 30.2073 13.866Z" fill="#222222"/>
</g>
<defs>
<clipPath id="clip0_189_1471">
<rect width="44" height="51" fill="white"/>
</clipPath>
</defs>
</svg>
